<svg xmlns="http://www.w3.org/2000/svg" width="1445.3" height="866.3"><path d="M599.5 941.8a472.3 472.3 0 0 1-48.9-5.8l-4.7-1a281 281 0 0 1-37.4-9.5 420.2 420.2 0 0 1-28.8-10.7 449 449 0 0 1-71-40.9 145.6 145.6 0 0 1-35.3-37.7 77.8 77.8 0 0 1-5.7-10.6l-1.1-2.2a367.7 367.7 0 0 1-10.3-21.8 465.5 465.5 0 0 1-12.2-30.2 492 492 0 0 1-23.8-92.2l-.6-4.6a326.4 326.4 0 0 1-2.9-27.2 427.5 427.5 0 0 1 1.1-64.6c.2-1.3.2-1.3-1.8-3-2.9-2.2-5.8-4.8-14.9-12.8a761.2 761.2 0 0 1-60.4-61.7 192.8 192.8 0 0 1-8.4-10l-4.9-6.1A644.4 644.4 0 0 1 136 337.4c-1-2-2.1-4.9-2.7-6.2a633.3 633.3 0 0 1-15.9-40.6A915 915 0 0 1 99.7 233l-2.6-9.6a626.7 626.7 0 0 1-8.4-37.1A876 876 0 0 1 75.5 95c-.7-8.7-.9-10.1-1.9-13-1.6-4.4-1.8-5.5-1.3-6 .6-.5 23.2-.2 31.9.5l7.5.3a1682.2 1682.2 0 0 0 31.4 1.8l10.5.8a604.7 604.7 0 0 1 25.4 2.2 504.7 504.7 0 0 1 20.8 2.2 463.8 463.8 0 0 1 19.4 2.5 7477 7477 0 0 1 19.5 2.7 435.8 435.8 0 0 1 12.3 1.9 469.8 469.8 0 0 1 14.3 2.4 796.4 796.4 0 0 1 42.2 8 281.1 281.1 0 0 1 14.6 3.2 376.4 376.4 0 0 1 11.7 2.7 977.5 977.5 0 0 1 66 17.6 1129.7 1129.7 0 0 1 74 25.1A1136.6 1136.6 0 0 1 589.3 202a213.6 213.6 0 0 1 11.2 6 77 77 0 0 1 7.3 4 730.6 730.6 0 0 1 33.8 19.6 1435.7 1435.7 0 0 1 19.1 11.8c5.4 3.4 7.8 5 18.4 12l10.5 7 3.4-.6a62.7 62.7 0 0 1 33 3.4 972.5 972.5 0 0 1 28.9 8.7l6.7 2c24 7 18.7 4.5 56.6 26.7l35.4 20.4 97 56c.6.5 1-.3 10.6-18.1a1052.4 1052.4 0 0 1 13.2-24.2c15.7-23.5 40-34.8 62-28.7a405.7 405.7 0 0 1 18.8 5.8 703.2 703.2 0 0 1 20.5 6.6 1458.3 1458.3 0 0 1 69.6 24.8 1490.5 1490.5 0 0 1 65.6 26.6l3.3 1.4a322.3 322.3 0 0 1 14.9 6.4l7.9 3.6a1219.2 1219.2 0 0 1 40 18.6l12.1 5.8a1890.1 1890.1 0 0 1 110.7 59c6.8 4 99.6 57.5 102 58.7 9.2 5 14.9 13.5 15.5 23.7.4 6-.6 9.9-5.1 19.2a447 447 0 0 0-5.5 11.3l-5.4 10.7a1119.8 1119.8 0 0 1-45.3 84.5 134.2 134.2 0 0 0-5 8.6l-3.6 6.3a113.4 113.4 0 0 1-4.8 7.8 688.1 688.1 0 0 1-6.5 10.6 295.4 295.4 0 0 1-9.3 15l-2.3 3.6a629 629 0 0 1-15.2 22.2 180 180 0 0 1-8.8 11.4c-4.7 6-10.6 12.7-17.7 19.8a155 155 0 0 1-39.8 31 257.3 257.3 0 0 1-12 6.6 388 388 0 0 1-14.5 8 168.4 168.4 0 0 0-10.3 5.7c-1.8 1-4.2 2.3-5.2 3a189.3 189.3 0 0 1-12 6.6l-2.5 1.3a37.8 37.8 0 0 0-5 3l-7 3.7a1705.5 1705.5 0 0 1-24.4 13.5 177.7 177.7 0 0 1-10.3 5.7 95.9 95.9 0 0 0-7.5 4.2 4509.9 4509.9 0 0 0-43.3 24c-7.1 4.2-13.2 5-18.1 2.6l-2.1-1c-3-1.5-13.7-8-14-8.4v-2.2l.1-1.8 24.9-19.1c16.9-13 25.2-19.6 26-20.6a198.7 198.7 0 0 0 13.7-20.7l1.8-3a146.7 146.7 0 0 0 4.7-8.4l.9-1.4-1.9-2.7c-6.1-9-13.6-14.6-42.6-31.3-31-17.7-50.6-25.7-74-29.8l-2.3-.4-7.4 7.4A198 198 0 0 1 1081 772a158 158 0 0 1-19 12.7 443.8 443.8 0 0 0-20.8 11.6 398.9 398.9 0 0 0-15.6 8.5 407 407 0 0 0-13.6 7.6 189.6 189.6 0 0 0-6.2 3.4l-3.7 2a119.8 119.8 0 0 1-8.8 4.8 69.7 69.7 0 0 1-6.7 3.8 488.2 488.2 0 0 1-13.3 7.3l-6 3.4a7.6 7.6 0 0 0-3.5 2.8c-.6.9-2.8 4-5 6.8-4.7 6.4-4.1 5.4-5 8.3-1.8 7.2-5 10.9-13 15-3.3 1.7-5.2 3-6.4 4.1a53.7 53.7 0 0 1-6.8 5.6 64.5 64.5 0 0 1-22.2 10.8c-.7.1-3.8 1.5-6.8 3-11.2 5.7-16.8 5.2-30.4-2.7-4.6-2.7-5.3-3.6-5-5.6.1-1.5 0-1.6-.9-2.1-2.2-1.2-5-3.2-7.6-5.7a34 34 0 0 0-9.2-6.5l-2-.8-1.2 1-3 2.3a270.8 270.8 0 0 1-73.6 42.2l-5 2a192.8 192.8 0 0 0-10.5 3.7 212.7 212.7 0 0 1-21.7 6.8l-5.3 1.4a393 393 0 0 1-62.7 11 580.5 580.5 0 0 1-61 1.4zm40.2-2a401 401 0 0 0 70.4-9.3l17.1-4.2a158.6 158.6 0 0 0 15-4.5 397.9 397.9 0 0 0 23.4-8.5l-1.7-1.2-1.8-1-1.5.6a564 564 0 0 1-16 5.9 59 59 0 0 0-5.7 2 57.4 57.4 0 0 1-8.5 2.5 58.7 58.7 0 0 1-6 1.7 464.2 464.2 0 0 1-26.5 6.2c-3.5.8-21.5 3.8-24.5 4.1a425.7 425.7 0 0 1-94.2 1 468.6 468.6 0 0 1-36.6-6 87.4 87.4 0 0 1-10-2.3 270.2 270.2 0 0 1-78.5-31.7l-5.5-3.2-1.9 1.1c-1 .6-1.8 1.3-1.7 1.4a159.2 159.2 0 0 0 12.8 7.4 279 279 0 0 0 17 8.6 319.5 319.5 0 0 0 72.6 22.9c1.7.3 3.3.6 3.7.8l2.5.4 6.6 1a226.2 226.2 0 0 0 17.7 2.4c3.1.6 17 1.6 25.3 2 9 .3 27.7.3 36.5 0zm-1.3-4.8a482.8 482.8 0 0 0 33.6-2.8 672.5 672.5 0 0 0 32.6-5.6 266 266 0 0 0 23.9-6 386 386 0 0 1 9.3-2.8c.8-.4 3.8-1.4 6.5-2.3 8.5-2.8 10-3.4 16-5.8 1.7-.8 3.2-2.4 10.7-12a378 378 0 0 0 46.3-75.3l2.5-5.3-1.3-5.8-1.5-8a188.4 188.4 0 0 1-2.4-21.7 192.8 192.8 0 0 1 2.4-46l.6-2.6a52.6 52.6 0 0 1 4.5-11.9l-1.9-.3-4.2-.6a109 109 0 0 0-10.9-1.5c-15-1.8-22.1-1.7-93.2.8l-23.6.8c-1.3 0-1.3 0-.9.6.9 1 1.8 11 1.1 12-1.3 2-.5 2-57.1 3.8-29.1.9-28.3 1-36.4-3.8a68.2 68.2 0 0 1-26.6-27.8 80.7 80.7 0 0 1-7-16.6c-1.1-4.1-.6-3.8-6-3.2a84.6 84.6 0 0 1-63.5-17.1 102 102 0 0 0-22.4 9.9 548.7 548.7 0 0 0-12.5 52.6 169 169 0 0 0-1.8 11 392.5 392.5 0 0 0-4.5 63.3 306.1 306.1 0 0 0 2.4 46.4 364 364 0 0 0 6.3 38.5l1 6c0 .5.4 1 1.3 1.3l6.8 3.6a216.3 216.3 0 0 0 15 7.3 363.4 363.4 0 0 0 32.3 12 737.3 737.3 0 0 0 20.8 5.7c2.5.6 14.4 3 20.4 4.1 5.6 1 18.9 2.8 29 3.8a487.2 487.2 0 0 0 52.5 1.3zM771 911.2a286.8 286.8 0 0 0 54.4-30 111 111 0 0 0 14.4-11.1l-1.9-1.2-1.5-1-2.5 2a8267.5 8267.5 0 0 1-12 9 155.3 155.3 0 0 1-13.8 9 346.8 346.8 0 0 1-42.5 21.9l-.9.5 1.7 1 1.9 1 2.7-1.1zm1.3-6.5c3-1.3 5.4-2.5 13.6-6.6a246.2 246.2 0 0 0 46.6-29.7 11 11 0 0 0 3.4-3.7l.8-1.7-.7-1.5a173 173 0 0 1-3.8-8.7 328.7 328.7 0 0 1-11-30.5l-.6-2.2-2.3 5a384.9 384.9 0 0 1-51 80.6l-1.6 1.8 2.5-1 4.1-1.8zm410.2-7.3a520 520 0 0 0 28.8-15.8l2.3-1.3 2.2-1.3 1.7-.9a102 102 0 0 1 6.8-3.8 300.3 300.3 0 0 1 8.3-4.6 483.9 483.9 0 0 0 19.6-10.8l3.4-1.8a2164.7 2164.7 0 0 1 37.8-21 590 590 0 0 1 25-13.9l4-2.2a87 87 0 0 0 6.7-3.8l4.6-2.4 3-1.5-4-.2a29 29 0 0 1-5-.6l-2.3-.8c-1.2-.4-1.2-.4-8.8 3.8-18 9.8-64.6 35.6-84.3 46.6a5841 5841 0 0 1-60 33.2c-3 1.7-3 1.7-.3 2.7a16 16 0 0 0 10.5.4zm-725.7-10-1.9-9.3a495 495 0 0 1-4.8-35.4c-1.5-14-2-46-1-62.4a477 477 0 0 1 7-56.5 463.9 463.9 0 0 1 10.4-42.9c.3-1 .4-2 .3-2a154.7 154.7 0 0 0-19 9.8 99.4 99.4 0 0 0-20 13.6c-.4 1.7-1.7 14.7-2.5 25.5A418.5 418.5 0 0 0 433 835a596.7 596.7 0 0 0 8.3 31.6l2.3 7.2c1 3.7 2.6 7.9 4.7 13.5l1 2.8 4.4 2.4c5.1 3 4.7 3.7 3-5zM899 891a242.5 242.5 0 0 0 24.4-13.9l11-6.4 1.2-.6h-2c-4.4 0-9.9-2.2-17.8-7-7.1-4.5-13.2-6-16.1-4-.6.3-33.7 25.7-34.3 26.2-.8.7 3.5 3.7 9.8 6.8 5 2.4 7.4 3 12.1 2.9l4-.1zm290.6-8.5a115357.9 115357.9 0 0 0 41.5-23 12122.7 12122.7 0 0 1 90.5-50.3c-.2-.7-49.3-28.3-49.4-27.7-1.3 7.3-33.3 13-40 7.1l-1.2-1-.2-3.3c-.3-5-.2-5 5.6-5.4 6-.5 9.4-1.5 12.1-3.6 1.2-1 4.2-1 10.6.2l5 .7s-42.1-24.2-45.6-26c-.1-.1-.2 1-.2 2.5v3c0 1-1.6 1.5-5.3 1.8-2 .1-4.9.5-6.2.8-2.1.4-3 .8-6.3 2.6-3 1.7-19.8-1-22.4-3.6-5.4-5.4 15.2-13.3 30.4-11.8h1.8c-.1-.2-10.8-6.3-23.8-13.7l-23.7-13.5-15 1.3a101986.3 101986.3 0 0 0-195 17.4c-1.7.1-7.7.7-13.3 1l-15 1.4L906 741c-4.6.3-4.6.3-.1 3l4 2.3 6.8-.2a22645.1 22645.1 0 0 0 102.6-3.3c45.5-1.5 52.8-1.5 68.3.3 26.4 3 54.9 11.3 75.3 22 4.7 2.4 35.6 20 39.2 22.4a98.7 98.7 0 0 1 18.6 14c10.3 10.3 13.4 20.6 8.9 29.5-2 3.9-4.7 6.2-39.3 32.8a1953 1953 0 0 0-32.5 25.2c0 .2 9 5.6 9.4 5.7l22.2-12.2zm19.8-96.8c-19-5.8-37.2-19-30.7-22.3 2.8-1.4 21.8 2 22.6 4.1.6 1.6 8.9 6.6 13 7.9 2.1.6 4.3 1.8 4.8 2.6s1 7 .6 7.5c-1.2 1.8-5 1.9-10.3.2zm8.2-1.6c.1-.7 0-.8-1.9-.7-1.8.1-2 .2-2.1.9-.1.7 0 .7 2 .6 1.8 0 2-.2 2-.8zm-6-1.4-3.3-1.3a67.9 67.9 0 0 1-26.2-14.3c-2.1-2-2.7-2.3-2.3-1 1.3 4.2 15.2 12.7 28 17l3.7 1.2.2-.7v-1zm6.1-2.4c0-1.3-.4-1.6-4.5-3.2a37 37 0 0 1-12.7-7.4c-1.8-1.8-2.8-2.3-5.6-2.7-3.9-.5-11.9-1.9-12.2-2a70.7 70.7 0 0 0 26.6 14.7c7.2 2.3 8.4 2.4 8.4.6zM444.6 892c2.2-1.4 2.5-1-2.1-3.5a228.6 228.6 0 0 1-25.7-16.6c-6.6-4.8-8.8-6.7-16.4-14.1a108.4 108.4 0 0 1-28-42.8 83.5 83.5 0 0 1-1.3-43.2 99.3 99.3 0 0 1 17.5-35.8 169 169 0 0 1 21.4-22.9l3.7-3.3-2-1.2-2.1-1.1-1.9 1.5a136.4 136.4 0 0 0-39.9 52.1 83.2 83.2 0 0 0-3.4 48.8c3.9 18.4 19.6 41.4 39.4 57.6 7 5.8 7.8 6.3 21.8 15.6 1.3.8 16.7 10 17 10l2-1.1zm1.3-5.5-1.7-4.9c-1.3-3.4-3.4-10-5.6-17a449.3 449.3 0 0 1-10.2-43.2 411.5 411.5 0 0 1-4-107.8c1-11.2 1-10.4.5-10l-2.7 2a203 203 0 0 0-24.2 22.1l-1.6 1.9.4 4.9A371.6 371.6 0 0 0 421 844.7l2 5.5a242.1 242.1 0 0 1 5.3 12.9l5 10.7 4.6 9.3c.3.6 8.2 5.3 8.5 5l-.5-1.6zm738-20.4a1892.8 1892.8 0 0 0 21-16.4 2216.4 2216.4 0 0 0-46.7 36.3l25.7-19.9zm-263.2 15.4c.8-.6.7-.6-3.2 1.6-.7.4-1.3.9-1.3 1a22 22 0 0 0 4.5-2.6zm-38.4-11.7 15.3-11.8s.6-5.6.5-5.7l-4 3.1-21.3 16.4c-6.7 5.1-6.4 4.8-6.7 8-.1 2.3 0 2.4.4 2l15.8-12zM434 879.9l-3.8-7.9a151.9 151.9 0 0 1-7-15.6 73.8 73.8 0 0 1-2.2-5.6l-2-5.5a390.4 390.4 0 0 1-24.5-110.9l-.2-2.7-1.4 1.8a109 109 0 0 0-6.7 9.3 87.1 87.1 0 0 0-10.6 20.6A78.4 78.4 0 0 0 383 833a67.4 67.4 0 0 0 6.2 9 148.8 148.8 0 0 0 38.4 35l7.2 4.6-.7-1.7zm429.6-1.6c0-2 .5-2.5 5.5-6.3l4-3-1.8-.5c-2.2-.7-6.7-2.6-8.8-3.9l-1.5-1-.7 1.6-2.5 6-2 4.5 2 1.7c4 3.8 5.7 4.1 5.8 1zM857 868c2.6-6.1 2.6-5.5.9-7.4-1.3-1.4-.7-4 3-12l2.7-6-.7-1.4c-.7-1.3-3.2-3.2-3.6-2.7-1.1 1.3-13 30.2-12.6 30.5l6.3 4.1c1.4 1.1 1.1 1.5 4-5.1zm81.8 0c8-1.5 13.3-9.2 14.2-20.7l.3-2.5-3.4 1.8c-3 1.6-3.3 1.9-3.6 3-3 10.3-14 14-24.6 8.3a129 129 0 0 1-7.2-4c-2-1.3-1.8-1.5-2 2l-.2 3 2.2 1.2 3.8 2.3a29.4 29.4 0 0 0 20.5 5.5zm-88-15 6.6-15.2s-.6-.6-1.4-1c-.8-.6-1.7-1.2-2-1.6-.5-.3-.8-.5-.9-.4a536 536 0 0 0-13.3 30.8c.2 0 1 .6 2 1.2a9 9 0 0 0 2.1 1.1c.2 0 3.3-6.7 6.9-15zm26.7 11.7c1.7-.4 5.2-2.8 12.6-8.7l3.6-2.9v-2c0-2.5.7-5 1.7-6.7 1-1.3 1-1.4-1-.1-14 8.6-25.8 5.6-30.7-7.8l-1-2.6c0 .7 1.6 5.7 2.3 7.2l.8 1.5-2.3 5c-4.9 10.6-5 11-2.3 13.5 4 3.8 10 5.2 16.3 3.6zm-33.2-19.2 6.5-14.8-.9-3.9c-.8-3.7-.8-4.2-.8-13.4a91 91 0 0 1 2-22.6 210 210 0 0 1 14.9-46.2c3.4-7.3 4-8.7 4-9 0-.3-2.2-1.2-8.7-3.7l-1.5-.6-5.8 13-19 43.1-13.3 30 .6 1.8.8 3c.6 3 4.6 14.2 8.8 24.6 3.5 9 5.5 13.5 5.8 13.5l6.6-14.8zM936 858c2.7-.8 5-2.9 7-6.2l1.1-2-3.5 2-7.5 4.2c-3 1.7-3.8 2.3-3.4 2.5.9.2 4.9 0 6.3-.5zm-25.5-2.3c.4-4.4-.7-5.3-6.6-5.4-3.2 0-3.8.3-3.8 2l-.2 2.9-.2 1.4h3.8a16.7 16.7 0 0 1 6.5 1c.2 0 .3-.8.5-1.9zm26.7-4.3a965 965 0 0 1 21.3-11.8 12300.4 12300.4 0 0 0 38.4-21.3l2.6-1.4a117.1 117.1 0 0 1 9.7-5.4 1433.4 1433.4 0 0 1 25.9-14.3l18.6-10.3c.2-.1-.8-.2-2.5-.2a15 15 0 0 1-5.4-.8l-2.3-.8-6 3.4a2786.8 2786.8 0 0 1-38 20.9c-10.5 6-22.5 12.7-31 17.2a809 809 0 0 0-48.9 27.8 33 33 0 0 0 5.6 2.8c.8.3 1.1.3 2.2-.3l9.8-5.5zm-2.2-8.5 27-15a2820.2 2820.2 0 0 0 54.2-30A1181 1181 0 0 0 1041 784c.2-.1-45.7-26.7-48.4-28-.5-.2-.8-.1-1.1.3-4.5 6.1-14.2 9.2-29.5 9.2-12 0-14.3-1.2-14.3-7.2v-3.2l1-.8c1-.6 1.5-.7 4.5-.7 7.8 0 11.5-1 15.9-4.6 1-.8 4.2-.9 8.6 0l3 .3c.4-.4-2.5-1.5-4.7-1.8-1.4-.2-3.2-.5-4-.8-1-.3-40.3.7-43 1.1a30 30 0 0 0 6.2 2.6c6.1 2 6.6 2.5 6.6 7.3v3.3l-1 .6c-6.2 3.7-34.8-9-42.6-19-1.1-1.4-3.2-3-5.3-4.2-.3-.2-1.7-.3-3.4-.2-12 .6-20.3-8.9-8.8-10l2.2-.4-1.4-2.3c-5-7.6-8-16.5-9.1-26-.7-6.2 0-5.6-7-5a6172.6 6172.6 0 0 1-67.6 6 5740.6 5740.6 0 0 1-70.4 6.2 6129.2 6129.2 0 0 1-54.1 4.8c-.6 0 1.6 1.6 6.5 4.3l3.9 2.2 44.3-1.4c50.2-1.6 60.1-1.7 70.6-.8a203.9 203.9 0 0 1 23.3 3c5.8 1 19.4 4.1 23.4 5.4a311.7 311.7 0 0 1 29.8 10.5 274.1 274.1 0 0 1 31.1 17l18 10.4a83.7 83.7 0 0 1 24.9 21.3c2.7 3 5 9.9 4.8 15.2l-.1 3.8-1.6 3c-2.6 5.5-.7 3.8-38.3 32.8l-13 10h2.6c4.4 0 7 .8 11.6 3.5l2 1.1 18-10zm9-70.5c-5.5-1.2-9-3.7-9-6.2 0-3.5 7.5-4.5 14.4-2 10.1 3.9 5.7 10.7-5.3 8.2zm7-1.7c3.6-.8.4-4.8-3.7-4.8-.6 0-1.8-.3-2.6-.5-3.2-1-8-.3-7.8 1 .5 2.6 9.7 5.3 14.2 4.3zm-53.3 77.7c.7-.7.7-.8.2-1.3-.6-.7-1.4.1-2 2.1-.5 2.1-.4 2.7.3 1.3.4-.8 1-1.7 1.5-2zm59.4-3.3 2.1-3 .7-1-2.2 1.3c-2.3 1.3-2.6 1.8-2.6 4.4 0 .9 0 .9 2-1.7zm-73 1.4 2.9-.7-2-2.1c-12.2-12.9-6.6-55.3 11.9-92 .5-1 .9-2 .7-2.2-.3-.3-7-4.1-7-4l-2.2 4.7c-18.8 40.5-24.4 79.3-13.7 94.3 2 3 3.7 3.3 9.4 2zm328.3-2.4-2 1.3-1.9 1.6 2-1.3 1.9-1.6zm-299.7-7.5a884.2 884.2 0 0 0 29.6-23c0-1.9-.7-1.5-8.8 4.8l-21 16.2c-8.2 6.3-13 10.3-13 10.6 0 .6.2 1 .5 1l12.7-9.6zM872 844c-9.7-15.4-3.9-54.2 14-93.5l2.9-6.1-2-1.2-2.1-1-1.6 3.3c-20.6 43.6-25.9 85.7-12.5 98.2 2.4 2.1 2.5 2.2 1.3.3zm19.4-.5c5.9-3 23-17.5 22.8-19.4 0-.2-5.7-4-12.7-8.5-14.8-9.5-14-8.7-13.8-13.6l.1-3-2.1-1.6c-1.5-1-2.2-1.4-2.3-1.2-.9 2.5-2.4 12.8-2.8 19-1 13 1.4 22.8 6.5 27.5 2.2 2 2 2 4.3.8zm322-.2c.5-.5.5-.5 0-.1-.6.4-.7.6-.5.6l.6-.5zm1.4-1c.4-.5.3-.5-.2-.1s-.7.7-.4.7l.6-.6zm1.6-4c12.5-9.4 15-13.6 12.4-21.4-.9-2.6-.9-2.6-3.1 1.5a174.1 174.1 0 0 1-6.7 11.5l-2.5 3.9a135 135 0 0 1-5.4 8c-1.2 1.4-.3.8 5.3-3.4zm-.4 3c.4-.4.4-.5 0 0-.6.4-.8.6-.5.6l.5-.5zm3-2.2c.3-.5.3-.5-.2-.1s-.7.7-.4.7l.5-.6zm-358.2-5c-4.4-20.2 4.1-59.4 19.7-90.5l1.3-3c-.3-.3-8.9-4.3-9.2-4.3-.5 0-3.6 6.3-6.5 13.3l-1.8 4.2a321 321 0 0 0-3.8 10.2c-7.4 20.7-11 43.2-9.1 57.6 1.1 9.4 4.5 14.6 9.7 15.2.2 0 0-1.2-.3-2.6zm54.6-5.9c3.3-2.4 3.3-2.4 3.5-4.1.3-2.5.1-2.5-1.5-.4-.9 1-3.5 3.9-6 6.4l-4.4 4.6 2.6-2 5.8-4.5zm-52.8 4c0-.2-.2-.1-.2.3 0 .3 0 .5.2.4v-.6zm-.3-1.5c-.1-.3-.2-.2-.2.2 0 .3 0 .5.2.4v-.6zm83.2-26c4.5-4.5 5.6-9.3 3.3-15.4-.8-2-4.5-7.7-6.7-10.3l-.8-1-2.7 5.1a302 302 0 0 1-8 14.5c-.8 1.2-.8 1.2-.1.8 2.1-1.1 3.9.5 3.9 3.6 0 8.1-8.3 18.8-11.5 14.8l-.6-.8-.2 2.4a65 65 0 0 1-.4 3.7l-.2 1.3 10.8-8.3c6-4.5 12-9.2 13.2-10.5zm-29.7 15.6c0-2.7-1.4-4.8-4.3-6.2-1.2-.5-6-3.6-10.7-6.7l-8.8-5.9c-.2 0-.3.5-.3 1.5 0 .9-.1 2-.3 2.6l-.2 1 12 7.8c12.9 8.3 12.6 8.2 12.6 5.9zm3-1.7c.8-1 2-5.4 1.8-5.6l-1.7-1-1.6-.7-1 1.3-1 1.3 1 1.3c.4.7 1 2 1.2 3l.5 1.6.9-1.2zm7-3.4c4.1-2.2 9.2-16.3 5.2-14.6-3.2 1.3-7.8 11.5-6.6 14.6.2.6.2.6 1.4 0zm-86.3-42.9a4388 4388 0 0 0 18.2-41.4c.2-1.1-31.4-9.9-33.3-9.2a46.8 46.8 0 0 0-5.5 15c-2.2 7-3.4 34-2 48.4 1 11.8 3.7 29 4.4 28.3l18.2-41zm75.3 39c.4-.6.7-1 .5-1-.1 0-.7.5-1.2 1.1-.5.6-.7 1.1-.5 1 .2 0 .8-.6 1.2-1.1zm32-1.5c3-3.2 4.8-6.7 5-10.1.2-2 .1-2.2-.1-1a20 20 0 0 1-6 10c-1.9 1.8-2.2 2.2-1.9 2.8.4 1 .5.9 3-1.7zm-34.7.9c1-1 1-1.3.3-1.5-.3-.1-6.5-4-13.7-8.8a226 226 0 0 0-13.3-8.4c-1.8 1.6-1.6 1.8 14.6 12.5 11.9 7.8 10.9 7.3 12 6.2zm9.8-1.8c1.2-3.2 3-6.5 6.8-13 3.6-6 7.3-12.8 9.4-17.1l1.3-2.5-1.4-1.3a7.2 7.2 0 0 0-1.6-1.2c-.2 0-18 35.2-18 35.6a11 11 0 0 0 2.6 1.5l.9-2zm418.4.6c10-2.8 33.6-21.8 49.5-39.8a376.8 376.8 0 0 0 26-33.7l3-4.6-1.9-.3c-2.2-.2-5.2-1-8-1.8-2.4-.8-1.7-1.4-6.9 6a252 252 0 0 1-16 21.4 89 89 0 0 1-7.1 8.2 284.3 284.3 0 0 1-28.9 28.4 182.5 182.5 0 0 1-21 14.4l-1.3.7-1.1.7 1 .3c3 .7 4 .8 7.4.7 2-.1 4.4-.4 5.3-.6zm-414.7-19.3c5-10.1 9-18.4 8.9-18.4-.3 0-18.3 36-18.3 36.6 0 .6-.1.8 9.4-18.2zm-564.3 14.4a79.8 79.8 0 0 1 .5-30 98.6 98.6 0 0 1 20.5-42.3c4.1-6 17.5-19.6 24.6-25.2 1.6-1.3 1.7-1.4 2.2-3.7a402.4 402.4 0 0 1 26.3-79.6l.4-1-48.1-29.9-48.2-30v11c0 20.4-2.8 23-15 13l-4.3-3.5-.4 2.8a337.9 337.9 0 0 0 1.3 83.7 319.7 319.7 0 0 0 3 18.9 330.7 330.7 0 0 0 4.6 23.2 508 508 0 0 0 30.8 91.5c2.5 5.9 2.8 6 1.8 1.1zm964.9 2.3a204.4 204.4 0 0 0 18.5-12 238.3 238.3 0 0 0 42.9-43.6 425.9 425.9 0 0 0 17.1-23.8 26592 26592 0 0 0-109.3-64.2l-14.2-8.3-4.3 4.3a204.7 204.7 0 0 1-26.5 22.7 198.5 198.5 0 0 1-41.1 23.8 194.7 194.7 0 0 1-39.6 11.6l-3.6.5 10.5 6a803638.4 803638.4 0 0 0 147.2 84l2.4-1zM922 787.5a799 799 0 0 0 8.8-17.9c0-.3-4.4-3.3-7.9-5.4l-3.4-2.1-1.2-.8-8.8 17.6a865 865 0 0 0-8.8 17.8c0 .2 11.9 8.2 12.4 8.4l8.9-17.6zm-14.4-9.3c10.1-20.2 10-19 2.2-21.7l-2.2-1.2-2-1-11.1 22.5-6.8 13.9 5.4 2.5 5.6 2.6 8.9-17.6zm330.1 9.8c.2-.7 0-.8-.6-1-.7-.1-3-.9-4-1.4-.2 0-.2.3-.2.7.2 1 2.2 2 4.5 2.5 0 0 .3-.4.3-.8zm16.9 0a29 29 0 0 0 13.6-5.4c1-1 1-1 .3-.6a54.4 54.4 0 0 1-26.9 5.3c-1.1-.1-1.7 0-1.7.1 0 .2 0 .6-.2 1-.3.6 10.6.4 14.9-.4zm-14.3-5 .9-2.4c0-.1-4.3.1-6.3.4-2.9.3-1.7 2.9 1.8 3.8 2.3.7 2.6.6 3.6-1.9zm14.8 1.5c5.5-1 9.6-2.4 12.2-4.1l1.2-.9-1-.3c-4.8-1.9-17.1-3-19-1.7-1 .8-2.7 1.7-4.2 2.1-.6.2-.8.7-2.2 4.1l-.6 1.7 5.3-.2c3-.1 6.7-.4 8.3-.7zm-360.5-16 8-16.2-1.4-.8a5 5 0 0 0-1.6-.7c-1.9 2-15 35.7-13.2 33.8l8.2-16.2zm161.5 15.8c2.8-.5 5.8-1.9 10.3-4.9l1.8-1c2-1.1 10.5-7.5 13.8-10.2 9.4-8 21.8-20.2 20.9-20.7-.4-.2-7.9-1.5-9.9-1.7-.6 0-1.6.8-5.5 5a196.6 196.6 0 0 1-32.2 27.4c-2.6 1.7-7.3 4.5-8.1 4.9-1.2.5-1.1.8.3 1l1.5.4c.8.2 5.3.1 7-.2zm-8.7-3.7c7.6-4.2 17.6-11.5 26.6-19.5 3.5-3.1 16-15.5 15.7-15.7-2.1-2.2-99-1.3-97.6.9.9 1.4-2.2 3-5.4 2.7l-2.6-.1 1.6.9a8 8 0 0 0 2 1c.6 0 3 1.2 4 2 .6.7 51.2 29.9 51.7 30l4-2.2zm-47.2-24c-5-1.5-7.3-3.3-7.3-5.8 0-5.6 16-5.6 19.5 0 3 4.8-4.4 8.3-12.2 5.9zm9.7-2.1c1.6-.9 1.6-1.8 0-3.3-.9-.9-1.2-1-1.6-.8-.8.7-5.5.2-7.4-.7-2-1-3.3-1-5.1 0-4.7 3 9.1 7.5 14.1 4.8zm-39.6 8.7c8.6-1 14.9-3.2 18.2-6.6 3-3 .2-4.9-4.8-3.2a64.4 64.4 0 0 1-21.1 2.7l-4.9-.1-.5 3-.7 3.8-.2.7h5.6c3 0 6.8-.1 8.4-.3zm-15.4-2.8.5-3.1c0-.2-.7-.3-1.7-.2-1 0-2 0-2.4-.3-.6-.3-.7-.2-1 1.5l-.5 2.4c-.2.8 2.5 2.3 4.4 2.5l.7-2.8zm-15.7-.3c.6-.2.8-4 .3-4.7-.4-.6-2-1.5-2.2-1.4a57 57 0 0 0-1.4 6c0 .4 2.6.4 3.3.1zm-5.2-.5.6-3.3c.8-3.6.7-3.8-.5-4.1l-2.8-1-5.6-2-3.7-1.3-6.3.2-6.2.3-2.2-1.3-3.4-2c-1.7-1-.7.2 1.9 2a83.8 83.8 0 0 0 28.2 12.5zm264.8-.1c1-.4.5-1.1-.8-1.1-1 0-1.3.1-1.3.6 0 .7 1 1 2 .5zm-4.2-.8c.3-.9.6-.8-4.9-1.7-5-.9-5.5-.9-5.5.1 0 .5.4.7 2.2 1l4.5.8c3.3.6 3.5.5 3.7-.2zm8-1.3c1.2-.7 5.1-1.6 8-1.8 2.6-.2 3.7-.8 2.9-1.6-.7-.7-8.7 1.2-11 2.5-1.4 1-1.4 1.7 0 .9zm-20.3-.9c0-.6-2.6-1.8-3.2-1.5-.5.3.2 1.2 1.4 1.7 1.4.6 1.8.5 1.8-.2zm18.8-1.4c2.8-1.9 6-2.7 13-3.3l2.2-.2-.1-1c-.5-5.1-25.8-3.8-34 1.8-1.6 1-1.6 1 6.4 2.3l7.3 1.3c1.4.5 3.7.1 5.2-1zm15.1-.7c0-.5-.1-.8-.3-.6-.2 0-.3.4-.3.8 0 .3.1.6.3.6.2 0 .3-.4.3-.8zm-245.6-.5c2.1-.2 5.2-.6 6.9-1 5.4-1 5.4-1 .8-1.8-6.1-1-7.6-1-9.2.4-.7.6-2 1.5-3 2l-1.6.7h1.2l5-.3zm19.1-7.2c.7-.4.1-.8-1.2-.8-1.2 0-1.4.1-1.4.7s1.6.7 2.6 0zm-4.5-.3c0-.4-.5-.5-2.5-.5-2.7 0-2.9.3-.3.7 2.6.3 2.8.3 2.8-.2zm-77.6-7.5 12.1-1.1A909 909 0 0 1 951 735l5.2-.6c1.5 0 12.2-1 23.8-2l63-5.6c66-5.8 117-10.4 117.2-10.5a52 52 0 0 1-9.6-38.5 19285.6 19285.6 0 0 1-138.9 12l-42.4 3.7a6338 6338 0 0 0-78.6 6.9 626.5 626.5 0 0 0-14.8 1.3h-1.2l.2 1.6a58 58 0 0 0 19.1 33.2c4.4 3.3 3.4 3.1 13.7 2.3zm-19-4.3-2.5-2.9-1-1.3-2.9-.1c-3-.1-5.2.4-5.2 1.3 0 2 6.6 4.6 11.5 4.7h1.7zm-260.2.1c64.3-2 62-1.7 54.2-6.2l-5.1-2.9a65.7 65.7 0 0 1-24.7-24.5 67.9 67.9 0 0 1-6.2-12.3c-.9-1-3.6-10.8-4.2-14.8l-.4-2.5-1.3.1c-4.7.3-79 6.9-79.2 7-.1.1.7 5.4 1.3 7.5 2.2 9 7 19 13.3 27.4a61.6 61.6 0 0 0 21 18.3 25 25 0 0 0 10 3.5l21.3-.6zm792-6.5c.9-.7 3.9-5 5.7-8.2l3.6-5.8a288.6 288.6 0 0 0 9.4-15.1c1-1.4 2-3.4 2.6-4.4l4.1-6.9a252.3 252.3 0 0 0 8.4-14.2c3.1-5.2 7.6-13 10.2-17.8a5142.7 5142.7 0 0 1 18.4-33.6 1470.3 1470.3 0 0 0 28.3-57c.6-1.3 1-2.5.9-2.7-.7-.6-9.4-5.2-9.6-5l-10.5 21a1182 1182 0 0 1-36.5 69.2 1474.8 1474.8 0 0 1-47.3 78.9c-.1.7 6 2.3 9 2.3 2.1 0 2.6 0 3.3-.7zM684 723.3c-.3-3.1 0-2.8-5.8-6a52.2 52.2 0 0 1-20.3-19.7 58.1 58.1 0 0 1-8.8-27.4c-.7-7.4-3.6-37-3.8-37.4 0-.2-.9-.6-1.8-.8l-2.5-.5c-.7-.2-.7-.2-.5 2.3a1560.4 1560.4 0 0 0 2.7 28.3c.7 8.3 1.2 11.9 2.1 15.8a93.2 93.2 0 0 0 4.1 12 71 71 0 0 0 33.2 36.3c1.7 1 1.7 1 1.4-2.9zm2.3 1.7c-.1-.2-.2 0-.2.4 0 .5.1.7.2.4v-.8zm722.2-2.8 7.3-11.6a777.1 777.1 0 0 0 16.8-27.3 1539 1539 0 0 0 68.2-127.2c0-.5-40.6-24.3-65.3-38.2-27.6-15.6-34.7-19.3-35-18.5a698.4 698.4 0 0 1-18.8 30 920.8 920.8 0 0 1-70.9 93.4 590.2 590.2 0 0 1-20.6 22.8l-7.7 8 12.3 7a5958.3 5958.3 0 0 1 55.6 32.6l33.8 19.9c25 14.8 21.5 13.5 24.3 9zm-241-6.5a99.6 99.6 0 0 0 12-2.3 196.9 196.9 0 0 0 46-17.7l5.7-3.3a102.8 102.8 0 0 0 11.7-7.5 254.1 254.1 0 0 0 32.2-26.8c2.4-2.3 4.2-4.2 4.2-4.4l-4.3-3.8a302.6 302.6 0 0 1-19.5-19.5c-3-3.5-2.3-3.6-6.7.6-5.3 5-11.4 10.2-16.7 14.2a378 378 0 0 1-19.6 12.9 189 189 0 0 1-25.8 11.8c-8 3-22.6 6.5-30.2 7.2-4.3.5-4 0-4 8.3 0 12.8 6.3 30.8 10.8 30.8l4.2-.5zm-474-8a5631.6 5631.6 0 0 0 68.7-6.1 6463.7 6463.7 0 0 0 66.8-6c35.5-3 42-3.6 42.3-3.9 0-.1 0-2.5-.3-5.4-.6-5.8-.7-5.4 1.6-6.7l1-.5-.6-2.2a62 62 0 0 1-1.6-14.7l.2-4.3h-.8a46300.6 46300.6 0 0 0-218.5 18.9c-1.2 0 2.8 11.7 5.9 17.1 4.6 8.2 11.4 16 13.5 15.7l21.8-2zm-276-1c3.3-2.7 3.6-2.9 5.9-4.5a290 290 0 0 1 60.3-33.3l4.5-1.9-1.8-1-1.9-1-3 1.2a602.8 602.8 0 0 0-9.6 4 312.6 312.6 0 0 0-59.4 35l-1.1 1 1.9 1 2 1.3 2.2-1.8zM412 703l1.6-1.2a4312.5 4312.5 0 0 0 8.3-6 217 217 0 0 1 22.8-14.1l5.1-2.9a582.7 582.7 0 0 1 25.3-12l5.5-2.3c2.3-1 2.8-1.3 2.6-1.7a3 3 0 0 1-.2-1 13 13 0 0 0-2.7-3.6A91 91 0 0 1 471 646c-1.3-2.2-1.4-2.2-6.3-5.1a359.7 359.7 0 0 1-20.5-12.7l-6.5-4.1-1.3 2.8a394.8 394.8 0 0 0-25 75.8c-.2.9 0 1 .7.3zm466.5-3.4a1189.3 1189.3 0 0 1 25-2.2 782.3 782.3 0 0 1 24-2.1l42.3-3.7 40.5-3.5a13473.9 13473.9 0 0 1 113.4-9.9l16-1.4c23.8-2.1 33-3.8 46.3-8.7l3.6-1.3 7.5-3.2A187.6 187.6 0 0 0 1258 619a773.8 773.8 0 0 0 105-137.2c1.7-2.7 2-3.3 1.6-3.7A1234.9 1234.9 0 0 0 1226 415a734.2 734.2 0 0 1-13.8-5.2l-7.3-2.6c-13.4-5-13.4-5-35.7-12.4a1086.8 1086.8 0 0 0-54.6-17 1859 1859 0 0 1-14.2-4 560.2 560.2 0 0 0-26.1-7l-7.4-1.9-10-2.5a1079.3 1079.3 0 0 0-47.4-11 695.3 695.3 0 0 1-14.2-3 602.3 602.3 0 0 1-21-4.2l-1.8-.3-13 24.5a4538.3 4538.3 0 0 0-28.7 53.5c-2.4 4.4-8 15.1-12.7 23.6-20.3 37.8-19 34.9-16.9 35a74.4 74.4 0 0 1 21 9.2 80.3 80.3 0 0 1 16.4 15.5c27.3 36.4 18.2 99-20.7 142.3a139 139 0 0 1-42.7 33.2c-1.5.7-2.7 1.5-2.7 1.7 0 1 1.7 16.5 1.8 17 .2.6.2.6 4.2.2zm-322.4-16.3c3.8-.5 3.8-.6 3.8-1.5 0-.8 0-.8-1.4-.6a109.3 109.3 0 0 1-34 .6 97 97 0 0 0 10.6 1.8c3.3.4 17.8.2 21-.3zm-32.1-1.8h-.6c-.3 0-.2.2.2.2.3 0 .5 0 .4-.2zm25.2-1.1c7.3-.7 9.9-1.3 10-2.3.1-1.2.4-1.4 5.5-2.6a137.8 137.8 0 0 0 56.5-30.3c1.4-1.1 6-5.4 10-9.5l7.5-7.5 1 .3c1.1.5.6 1 4.7-4.1 43.7-54 49-126 12-163a66.3 66.3 0 0 0-23.9-15.5 92.9 92.9 0 0 0-11.6-4.2c-.2 0 1.2.9 3.2 2 49.6 28.2 53.2 104.2 7.8 164.4-44.8 59.3-118 76.3-158 36.8-3.2-3.1-3.2-3-.2 1.7 16 24.3 44 36.9 75.5 33.8zm331-4.7a134 134 0 0 0 32.2-25.3c3-3 3.3-3.6 2.4-3.2a148 148 0 0 1-39.6 10.2c-2.5 0-2.7 9.8-.5 18.6.7 2.7.2 2.7 5.5-.3zm-273.6-3.1a7681 7681 0 0 0 33.4-3l1.9-.1-.2-1.5a595.8 595.8 0 0 1-2.4-24.2 220 220 0 0 1-1-11.5c0-.8 0-.8-1.7 1-15.3 16.4-38.7 33-54.1 38.5-1 .3-2.9 1-4.4 1.7l-3.9 1.3c-1.7.4-2.1.9-.5.7l33-3zm155.2-7.2 110.1-9.6a148.5 148.5 0 0 0 46-12.2 100 100 0 0 0 14.5-19.3c2.7-4.6 6.5-11.7 6.3-11.9a421.1 421.1 0 0 0-20-6.9l-2.8-1a8303.6 8303.6 0 0 1-58.4-20.2 10742.5 10742.5 0 0 1-102-35.2 8535.4 8535.4 0 0 1-44.2-15.4c-.7-.3-.3-1.4 3.3-8.8l17.8-38.3c7.8-17 14.3-30.8 14.5-31 .5-.1-2.5-1.1 43.4 15 29 10.1 100.3 35 148.8 51.6l7.7 2.7-.2-.9c-4.2-17.2-24.1-35.2-44.8-40.4-1.5-.4-4.4-2.2-4.5-2.9-.1-.2 1.3-3 3-6.2a33264.8 33264.8 0 0 1 33.5-62.6c.4-.4 2.1-3.7 7.2-13.5 2.8-5.3 2.8-4.8-.3-5.8l-5-1.9-6.5-2.4-11.1-4c-8.4-3-8.1-2.9-8.1-2.5a1391.8 1391.8 0 0 1-35.7 66.5c-.4.2-19.7-7.6-58.2-23.3l-30.8-12.5c-30.3-12.2-33-13.5-33-15 0-.2 4.7-8.6 10.6-18.7a800.3 800.3 0 0 0 19.8-35.1 1286.2 1286.2 0 0 0-71.6-16.5 1929.3 1929.3 0 0 0-16.2 30.2l-3 5.7c-1.6 3-4 7.6-5.5 10.1a821 821 0 0 0-12.3 22.9l-3.3 6.2a4012.4 4012.4 0 0 0-23.3 43.6l-2.2 4 1.8 1.2c52.8 35 53.9 116.8 2.2 178.8l-2 2.5 1.9 19.3c1 10.6 2 20.2 2 21.3l.3 2 1.6-.2 108.7-9.4zm-224.7-3c92-9.9 157.5-136.4 103.8-200.5-42.2-50.5-133.8-20.5-172.8 56.6-38.5 76-2.2 151.7 69 144zm-13.2-7.6c-73.9-6.5-87.4-105.6-23.4-171.5 64-65.8 152.3-43.4 152.3 38.6 0 70-66.3 138.5-128.9 133zm16.5-3a107.2 107.2 0 0 0 49.1-19.6C522.8 676 457.7 622 484.3 544.8c29.4-85.6 136.2-112.4 160.1-40.3 5 15.2 5.3 30 .9 51.3l-.2.8.4-.8c.5-1.3 2.4-9.2 3.3-13.7 16.4-90.5-75.6-127.3-144.8-58-63.2 63.4-51.7 160.5 19.8 167.8 3.2.4 13 .2 16.7-.2zm10.9-7c64.5-9.8 114-92.4 88.1-147-26.7-56.3-111.9-37.3-147 32.9-31.1 62 .3 122.9 58.9 114zM645 557c0-.3-.2-.2-.2.2 0 .3 0 .5.2.4v-.6zm644.3 86.4A850.7 850.7 0 0 0 1381 527a1803.5 1803.5 0 0 1 13.9-22l4.2-6.9-3.6-2.4a141.2 141.2 0 0 0-12.2-7.4 133.3 133.3 0 0 0-10.3-5.8 53 53 0 0 0-6-3l-3.9 6.3a779.1 779.1 0 0 1-108.6 140 200 200 0 0 0 26.6 26.3l8.3-8.6zm-822.7-5.2a106.3 106.3 0 0 1-16.5-67.3s-5.2 9.3-11.4 21L427 613.5c-.3.5 39 25.8 40.1 25.8.1 0-.1-.5-.5-1zm184.6-14C685 581 694.8 525 675.7 485.4c-2.3-4.7-3.6-6.8-1.9-3 19.3 42.6 7.8 100.4-28.5 144-2.9 3.5-2.8 3.4-.9 3.8 1.8.4 2 .2 6.8-6zM438 589c12.8-23.6 12.8-23.7 13.2-26.4a165 165 0 0 1 2.7-13.3l.7-3-21-13a246 246 0 0 0-21.6-12.8l-85.2 31.2c-.3.2 17 11.1 48.8 30.9 27 16.8 49.3 30.5 49.4 30.4l13-24zm500.5 19.9c2.6-2.1 1.5-6-1.2-4.1-1.5 1-2 3.3-1 4.3.6.8 1 .8 2.2-.2zm-4.1-4.2c2-3.2 6-3.2 7.4 0l.4.9.7-1.7c1-2.4 1-2.5-.5-2-2.6.6-4.7-1.4-4.4-4.2l.2-1.4-.8 1c-3.1 3.6-8.4 1.5-7.2-3 .4-1.3.3-1.4-.4-.3-2.6 3.9-7.4 3-7.4-1.4v-2l-.6.9c-2.3 3.7-7.5 2.4-7.4-1.9V588l-.6.8c-2 2.6-5.6 2.6-7 0-.4-.8-.5-.7-1.4 1.4l-.4 1h1.7c3.9-.4 5.3 4 2.4 7.3-.8 1-.9 1.1-.4 1.3.9.3 1 .2 1.2-1 1-5.8 8.5-6.7 8.5-1v1.3l1.2-1.1c3.1-2.8 6.7-1.4 6.6 2.5v1.6l1.1-1.2c4-4.2 9 .4 5.8 5.3-1.1 1.8-1.1 1.7-.4 1.9.4 0 .6-.2.8-1.2a8 8 0 0 1 .9-2.3zm-4.1 1.6c2-1 2.6-4.6.6-4.6-2.3 0-4.4 4.4-2.3 5h.6l1-.4zm-4.7-1.7.1-1.3-.9.9-.8.9.8.3.8.4v-1.2zm-2.4-1.6c2.2-2.3 1-5.2-1.6-3.9-1.3.7-2 3.6-1.2 4.5.7.6 1.9.4 2.8-.6zm-5.4-1c0-.5 0-1.2.2-1.5 0-.3-.3 0-.8.7-.6.9-.8 1.4-.6 1.5.7.5 1.2.3 1.2-.7zm-3.2-1.1c1.6-.9 2.4-3.4 1.4-4.5-1.8-1.7-5 2.2-3.5 4.3.6.8.8.8 2 .2zm28.7-1.8c2.4-2.3.8-5.7-1.8-4-1.5 1.1-2 3.3-1 4.4.7.7 1.6.6 2.8-.4zm-35.7-2c.8-.7.9-1.1.8-2.2-.2-3-4-1.2-4 1.9 0 2 1.6 2.1 3.2.4zm27.8-.8c1-1 1.6-3 1-3.7-1-1-3-.4-3.8 1-1.4 2.9.5 4.8 2.8 2.7zm5.4-3a4 4 0 0 1 4.5.3c1 1 1 1 1.5-.4l.3-1h-1.3c-2.8 0-4.3-2.6-3.2-5.8.1-.3-.1 0-.6.6-2.6 3.8-7.6 3.1-7.6-1.1v-1.6l-1.3 1.2c-3 2.7-7.2.9-6.6-2.9l.2-1.1-1.3 1.1c-4 3.6-8.4-.4-5.7-5.2 2.4-4.3 8-3.2 7.6 1.5l-.1 1.4.6-.7c2.9-3.6 7.6-2 7.2 2.3l-.2 1.6.6-1c2.6-4 8.9-1.8 7.5 2.6-.2.5 0 .4.9-.5 1.4-1.3 3.2-2 4.5-1.5.5.2 1 .3 1.1.2.1-.2 0-.3-.2-.4-3.7-1.3-3-7.7 1-9 1.2-.4 1.7-1.6 1.1-2.7-.1-.3-.3-1.1-.3-1.8V568l-.6.8c-2.6 3.3-7.3 1.6-7-2.5l.2-1.6-1.2 1.2c-3 3-6.9 1.9-6.9-2V562l-.7 1c-2.8 3.3-7.3 2-7-2v-1.8l-1.2 1.3c-2.2 2.3-5.2 2.1-6.4-.2-.5-1.1-.6-1-1.6 1.3l-.5 1.2 1.4-.2c3-.3 4.5 1.2 4.3 4.2l-.2 1.6.6-1c2.6-4 8.6-2 7.4 2.5-.2.7-.1.7 1-.4 3.1-3.1 7.1-1.6 6.8 2.6v1.6l.6-1c2.8-4.1 8.6-1.7 7.2 3-1.5 5.2-8.3 5.6-8.3.4v-1.5l-1 1c-3 2.9-6.9 1.6-6.8-2.3v-1.7l-.8 1c-2.8 3.3-7.1 2-7.1-2v-1.4l-1.3 1.1c-2.2 2-5.2 1.9-6.2-.4l-.4-1-.8 1.7c-.9 2-.9 2 0 1.6 2.2-1.2 5.2.8 5.2 3.5 0 4.7-6.8 7.5-8.4 3.5-.3-.8-.3-.7-1.2 1-1 2-1 2 .3 1.5 3-1 5.5 2 4.4 5.5-.3.7-.2.7.3-.2 2.7-4.1 7.8-3.4 7.8 1.2v1.3l1.2-1.1c3.2-3 7.3-1 6.6 3.1l-.2 1.3.8-1c2.8-3.5 7.5-2.1 7.2 2.2l-.1 1.8.7-1c.4-.7 1.2-1.4 1.7-1.7zm-41.5 1.7c1.6-1.3 2-3.9.6-4.3-2-.6-4.6 3.2-3.2 4.5.6.6 1.7.5 2.6-.2zm-5.2-1.2c0-.8 0-.8-.8-.2-.5.4-.6.7-.4.8.7.5 1.2.3 1.2-.6zm32.9 0c1-.5 1.7-1.7 1.7-3 0-2.3-2.8-2-4 .3-1.3 2.4 0 4 2.3 2.8zm-35.8-1.2c2.3-1.2 2.5-5 .3-5-1.2 0-2.9 2-2.9 3.5 0 1.8 1 2.3 2.6 1.5zm-4.6-1.8v-1.3l-.8 1c-.8 1-.9 1.1-.4 1.3 1 .4 1.2.3 1.2-1zm32.4.5c2.2-1.2 2.7-4.6.7-4.6-1.7 0-3.5 2.3-3 3.9.3 1.2 1 1.4 2.3.7zm-14.7-3.6-.6.2c-3.9 2-6.7-3.4-3.7-7 2.1-2.5 6.9-2.5 6.9 0 0 .7.6.2 1.2-1.1l.7-1.6-1.3.2c-4.4 1.2-6-4.6-2.1-8 1.8-1.6 5.2-1.2 5.8.6.3 1 .7.7 1.4-.9.7-1.8.7-1.8-.5-1.3-2.4.9-4.6-.9-4.6-3.7 0-1.6 0-1.6-.6-1-2.6 3.6-7.2 2.4-7.2-1.7v-1.9l-.6 1c-2.3 3.8-8.4 1.7-7.4-2.7l.2-.8-.6.9c-2.8 3.4-7.3 1.9-7-2.4v-1.9l-.5 1c-2.5 3.8-8 2.6-7.6-1.6l.2-1.5-1 1c-2.9 3-7 1.9-7-2v-1.6l-1 1c-3.7 3.8-8.7.2-6.3-4.5 2.4-4.7 8.6-3.7 8 1.3l-.2 1.2.8-1c3-3.6 7.4-2 7 2.5l-.1 1.7.5-1c2.6-4 8.1-2.8 7.6 1.8l-.1 1.4.8-1c3-3.5 8.2-1.6 7.2 2.6l-.2.8 1-.8c3.2-3 7-1.6 6.7 2.6l-.1 1.4 1.3-1.3c3-3 7.2-1.6 6.8 2.5l-.2 1.4 1.4-1.4c2.1-2.1 5.3-1.8 6.4.7l.3.9.9-2c.7-1.7.7-1.8.2-1.6-1.5.9-4 0-4.7-1.4-2.3-5 5-10.5 7.5-5.8l.6 1 .8-1.8c.8-1.7.8-1.8.3-1.6-2.4 1.3-5.1-.6-5.1-3.5 0-4.6 6-7.4 8-3.7l.4.9.7-1.4c1-2 1-2.2-.3-1.8-2.6.8-4.8-1.1-4.6-4l.2-1.4-1.1 1.2c-3.7 4.1-8.8.2-6.3-4.7 2.2-4.3 7.8-3.6 7.8 1 0 1.6 0 1.6.6.9 2-2.6 7-2.5 7 0 0 1 .6.5 1.3-1l.7-1.7-.7.2c-3.7 1.2-6.3-2.3-4.5-5.9.7-1.2 2.4-2.9 3-3 .4 0-2.6-1.2-3-1.2l-.1 2c0 1.7-.2 2.3-.7 3-3.1 4.3-8.8 2.4-7.5-2.4.5-1.5.5-1.5-.4-.3-2.6 3.9-7.4 3-7.4-1.2v-1.9l-1 1.2c-3.3 3.7-8.3.7-6.7-3.9.2-.6 0-.5-.5.3-3.7 5.4-10.2 1.3-6.7-4.2.5-.8 1.4-1.7 2-2l1-.5-1-.4c-2.6-1-2.5-1-2.4.8.4 5.4-6.6 8.4-8.2 3.5-.2-.6-.3-1.5-.2-2l.2-1-1.1 1.2c-3.2 3.1-7.3 1.5-6.8-2.8l.1-1.6-.7 1.1c-1.8 2.7-5.4 2.9-6.9.5l-.6-1-.3.8-.8 1.8-.5 1 1.1-.5c3.7-1.5 6.3 3 3.9 6.6-2 3-5.5 3.3-7.4.5-.3-.5-.4-.3-1.2 1.3-.8 1.5-.8 1.7-.3 1.4 2.8-1.5 6 1 5.3 4.1l-.2 1.1.9-1c3.7-4.4 9.3-.4 6.4 4.6-2.5 4.4-8.9 2.9-7.7-1.9.2-.7 0-.7-1.1.5-2.2 2-5.3 1.9-6.3-.3-.4-1-.6-.9-1.4.9-.8 2-.8 2 0 1.6 2.3-1.3 5.1.5 5.1 3.4v1.1l1.3-1c3-2.5 6.2-1.2 6.2 2.7v2l.6-.9c2.4-4 8.3-2 7.5 2.3l-.2 1 .8-1c2.9-3.4 7.4-2 7 2.2v1.8l1.3-1.3c3-3.1 7.2-1.6 6.8 2.4l-.2 1.5 1.4-1.4c1.3-1.3 2-1.6 4.1-1.4 1.3.1 2.4 1.8 2.4 3.6v1.7l1-1c4.4-4 9.3.3 6 5.3-2.7 4-8.1 2.4-7.5-2.3l.2-1.3-.7 1c-2.3 3.6-7.3 2.5-7.3-1.6 0-1.7 0-1.7-.6-1-2.6 3.5-7.2 2.4-7.2-1.8v-1.9l-.8 1c-2.8 3.6-8.3 1.5-7.2-2.8.2-.6 0-.6-1.1.5-3 3-7 1.4-6.7-2.6l.1-1.5-.7 1c-2.8 3.4-8.3 1.5-7.3-2.6l.2-.8-.6.8c-2 2.5-5.8 2.4-6.9-.3l-.4-1-.9 1.9c-.8 2-.8 2-.1 1.7 5-1.8 7.1 5 2.5 8.1-2.2 1.5-4.9.8-5.7-1.4-.2-.6-.4-.4-1.1 1.2-.9 2-.9 2-.2 1.7 3-1 5.2.6 5 3.8l-.2 1.9.6-1c2.6-4 8.4-2.2 7.5 2.3-1 5.6-8.3 6.4-8.3 1v-1.9l-1.1 1.2c-2 2.2-5 2.2-6.4 0l-.6-1-.4.9c-1.3 2.8-1.4 3-.7 2.6 3.4-1.8 6.7 2 4.9 5.7-1.8 3.6-6 4.3-7.6 1.3l-.6-1-.7 1.5c-.9 2-1 2.2-.1 1.8 2.5-1.4 5.4 1 5 4.1l-.1 1.2 1-1.2c3.9-4.2 9 0 6.1 5-.4.7-1 1.5-1.3 1.6-.7.2-.4.7.7 1 .9.3 1 .3.8-.8 0-.8.2-1.6.7-2.6 2.4-4.7 8.3-3.7 7.8 1.3l-.1 1.5.6-1c2.5-3.6 7.5-2.4 7.4 1.9v1.4l1-1c3-3.3 7.2-1.5 6.8 2.7l-.2 1.6 1-1.2c2.7-3.3 7.1-2 7 2.1v1.5l.8-1c2.6-3 7.1-2 7.1 1.7v1.4l1-.8c2.3-2 5-1.8 6.2.3l.6 1.1.8-1.7.7-1.8zm-12.4-3.4c-1-1.1-1-1.2-1-3l.2-2-.6 1c-2.3 3.7-7.5 2.7-7.5-1.4V577l-.7 1c-3 3.4-7.5 1.7-7-2.7l.1-1.5-1.3 1.3c-2.8 3-6.9 1.7-6.9-2V572l-.7.7c-3 2.8-6.8 1.5-6.8-2.3v-1.6l-.8.9c-3.6 4.3-9 .5-6.4-4.6 2.2-4.2 7.8-3.5 7.8 1v1.5l.7-1c2.7-3 7.1-1.7 7.2 2.2 0 1 0 1.2.3.7 2-3.4 7.2-2 7.2 2v2l.7-1c2.7-3.4 8.4-1.6 7.3 2.3-.6 1.8-.5 2 .2.9 2.6-4 7.9-2.8 7.6 1.7l-.1 1.5.7-1c2.2-2.8 6.3-2.5 7.1.7 1.2 4.5-4.2 8.6-7.3 5.6zm4.5-2.2c.8-.8.9-1.2.8-2.3-.2-3-4-1.2-4 2 0 2 1.6 2.1 3.2.3zm-8-2.4c1-1.1 1.4-2.4 1-3.5-.9-1.7-3.7-.3-4.1 2-.5 2.3 1.3 3.2 3 1.5zm-7.9-2.8c1.6-1.6 1.4-4.3-.4-4.3-1 0-2.7 2-2.7 3.4 0 2.3 1.4 2.7 3.1 1zm-8-2.7c1.8-1.7 1.8-4.2-.1-4.2-2 0-3.7 3.4-2.5 4.6.8.8 1.3.7 2.5-.4zm-7.5-2.9c1-1 1.4-2.3 1-3.4-.8-1.7-3.6-.5-4.2 1.7-.7 2.4 1.4 3.5 3.2 1.7zm-7.8-2.7c2-2 1.1-5-1.3-4-1.7.6-2.7 3.5-1.6 4.6.7.8 1.7.6 2.9-.6zm40.5 7.1c-2-.5-3-3.8-1.9-6 1.2-2.3 4-3.7 5.8-2.8 4.7 2.2 1.1 10.1-4 8.8zm2.7-2.4c2-1.6 1.8-4.6-.2-4.5-2 0-3.5 2.7-2.6 4.4.4.8 1.8.8 2.8 0zm-11.9-1.4c-1-1.2-1.3-2.2-1-3.5l.2-1-1 1.1c-3.1 3.3-7.3 1.9-7-2.3l.2-1.8-.7 1c-2.9 4.2-8.7 1.8-7.2-3.2 1.6-5.2 8.7-5.1 8.2.2l-.1 1.5.8-1c3-3.6 8.4-1.4 7 3-.2 1.1 0 1.7.2.6 1-3 5.7-3.7 7.3-1.1 2.5 4.1-3.8 10.2-6.9 6.5zm4.3-1.8c1.1-1.1 1.5-2.4 1-3.5-.9-1.9-4.2.3-4.2 2.9 0 1.7 1.8 2 3.2.6zm-7.7-2.8c.9-.8 1.3-3.1.7-3.8-1.1-1.4-3.9.7-3.9 2.9 0 2.1 1.5 2.6 3.2 1zm-8.2-2.4c1-.9 1.7-2.8 1.2-3.8-.8-1.6-3.6-.2-4 2-.5 2.2 1.1 3.1 2.8 1.8zm-11.9-1c-2-2.3-1-6.4 1.9-7.9 5.1-2.7 7.8 4.5 2.9 7.9-1.5 1-3.8 1-4.8 0zm4.3-2.3c1.2-1.2 1.5-2.9.7-3.7-1.4-1.4-4.6 1.9-3.8 4 .5 1.1 1.8 1 3.1-.3zm41.2-14.8c-3.8-1.9-1.5-8.7 3-8.9 3 0 4.6 3.1 3 6.1-1.4 2.8-3.8 3.9-6 2.8zm3.6-2.7c1.6-2 1.3-4.2-.4-4.2-2 0-3.7 2.5-3 4.3.5 1.3 2.2 1.2 3.4-.1zm-11.2.1c-1.2-.2-2.1-1.8-2.1-3.8v-1.5l-1 1c-3.5 3.2-7.3 1.8-7-2.6l.2-1.6-.6 1c-2.4 3.9-8.3 1.9-7.4-2.5l.2-.8-.7.8c-3.6 4-9 1-7-4 2-4.7 8.1-4.3 8 .6v1.6l1.4-1.3c2.8-2.9 6.5-1.5 6.5 2.5v1.3l1-1c3.4-3.1 7.5-1.4 7 2.9-.2 1.3-.2 1.3.3.5 3.3-4.7 9.6-1.3 7 3.9-.6 1-2.6 2.9-3.2 2.9a8 8 0 0 0-1 .1h-1.6zm2.7-2.4c2.6-2 1.8-5.7-1-4.3-1.5.8-2.4 3.3-1.5 4.3.5.5 1.9.5 2.5 0zm-8-2.6c1.5-.8 2.4-3.3 1.4-4.2-1.7-1.8-5.2 1.7-3.8 3.8.6 1 1.1 1 2.4.4zm-7.7-2.8c1.3-.7 2.1-3.5 1.2-4.4-1.3-1.3-4 .7-4 3 0 1.6 1.3 2.3 2.8 1.4zm-7.4-3.2c1-1 1.4-2.3 1-3.4-.8-2.2-4.1 0-4.1 2.7 0 1.9 1.6 2.3 3.1.7zm23.7.7c-1-.9-1-1.1-1-2.8V529l-1.1 1.2c-3.6 4-8.7.5-6.4-4.4 2.4-4.9 8.3-4 7.8 1.2l-.1 1.6.7-1.1c2-3 6.3-2.8 7.2.4 1.3 4.3-4 8.6-7.1 5.8zm3.7-1.7c2.4-1.9 1.9-5.6-.6-4.5-1 .5-2.1 2.2-2.1 3.2 0 2 1.2 2.5 2.7 1.3zm-7.4-3c1.6-1.7 1.4-4.3-.2-4.3-1.8 0-3.6 2.9-2.8 4.4.5 1 2 1 3-.2zm-11-.1c-1.1-.3-2.2-2.1-2.2-3.7V524l-.9.9c-3 2.8-6.6 1.6-6.6-2.2v-1.9l-1.3 1.3c-3.8 3.9-8.6 0-6-4.9 2.4-4.2 7.7-3.4 7.7 1.2v1.4l.8-.8c3-3.3 8-1.6 7.2 2.5-.2.8-.2.8.8-.2 2.4-2.3 5.6-1.8 6.6 1.1.7 2.2-.6 5-3 6.2-1.4.7-1.8.8-3 .4zm3.3-3c1.7-1.8 1-4.5-1-3.8-1.5.5-3 3.7-2 4.6.5.6 2 .2 3-.8zm-8.5-2c2-1 2.5-4.2.8-4.8-2-.6-4.3 2.8-3 4.6.5.8 1 .9 2.2.2zm-7.1-3.3c2.2-2.2.9-5.2-1.7-3.9-1.4.8-2.2 3.5-1.3 4.4.7.7 2 .5 3-.5zm-544.4 69c1.6-1.2 2.8-5 2.8-9V579l-3.4-2.6a155.2 155.2 0 0 1-9.4-7.5 108 108 0 0 1-7.8-6.5l-4.8-4.2a715.9 715.9 0 0 1-55-53.6 624.6 624.6 0 0 1-48.8-60.7 762.8 762.8 0 0 1-45.6-74.6 422 422 0 0 1-13.2-26.7c-.8-2-2.2-4.9-3-6.4a162.6 162.6 0 0 1-7.2-16.5 863.2 863.2 0 0 1-24.2-65.6l-2-6.3a724 724 0 0 1-17.7-70.7l-.7-3.1a1108 1108 0 0 1-9.4-59.6l-.8-7a521 521 0 0 1-2-20.7 30 30 0 0 1-.4-3.6c0-1.7-.2-1.8-1.9-.8-3.4 2-3.7 3.4-2.7 12.5a995.3 995.3 0 0 1 2.2 22 1181 1181 0 0 1 2.1 16.8 752.2 752.2 0 0 1 2.7 18.4l.8 5.1a628.4 628.4 0 0 0 6.5 34.3 550.6 550.6 0 0 0 9.4 39.6 669 669 0 0 0 22.7 71.2 957.4 957.4 0 0 0 16.2 39.4 737.4 737.4 0 0 0 37 71.4 930.3 930.3 0 0 0 7 11.4 814.7 814.7 0 0 0 19.8 30l2 3a125.6 125.6 0 0 0 4.1 5.5 591.7 591.7 0 0 0 39.5 49.3 623 623 0 0 0 69.8 67.8c8.8 8.2 13.6 11.2 15.4 9.7zm549.4-.6c1-1 1.3-3 .5-3.8-1-1-3.6.5-4 2.4-.4 2.4 1.7 3.3 3.5 1.4zm63.2.3c.4-.4.8-1.1.9-1.6 0-.5.3-1 .4-1.3.9-2.4-3-1.4-4 1-1 2.2 1.2 3.5 2.7 1.9zm-68.6-1.6.2-1.6-1 1.2-1.2 1.2.9.4.9.3.2-1.5zm33.2 0c1.5-1.5 1.3-4.1-.2-4.1-1.7 0-3 1.5-3 3.4 0 2 1.6 2.3 3.2.7zm27.7-1.4c2-2 1.3-4.9-1-4a3.6 3.6 0 0 0-2 3.2c0 2.2 1.3 2.5 3 .8zm-64 .3c1.6-1 2.2-3.2 1.2-4.1-1.2-1.2-4 .8-4 2.8 0 1.7 1.4 2.4 2.9 1.3zm-4.7-2.9-1 1-1 1.1.8.3c.6.2 1.7-2 1.2-2.4zm32.4 2c1.7-1 2.4-3.4 1.2-4.5-1.7-1.6-4.7 2.1-3.4 4.1.7 1 .9 1 2.2.4zm28.5-2c1.5-1.4 1.6-3.8.1-4.1-2.1-.6-4.1 2.7-2.9 4.6.7.8 1.5.7 2.8-.5zm-63.5-.2c2-2.1 1.1-5-1.3-4.1-1.7.6-2.7 3.5-1.6 4.6.7.8 1.7.6 2.9-.5zm-5.3-1.3.1-1.4-1 1.1c-.9 1-1 1.2-.5 1.4 1 .4 1.3.3 1.4-1.1zm-2.5-1.5c2.3-2.8.5-5.7-2-3.2-1.2 1-1.5 2.3-1 3.4s2 1 3-.2zm63.7.1c1-1 1.3-2 1-3.1-.5-2.1-4.3-.2-4.3 2.1 0 2 1.7 2.5 3.3 1zm26.1-2 .5-2.5c.3-1-.3-.9-1.3.3-.9 1-1.1 3-.4 3.7.6.7.8.5 1.2-1.4zm-34.7 0c1.8-.9 2.5-4.3 1-4.7-2.3-.6-4.8 3-3.2 4.5.6.6 1 .6 2.2.1zm-63.3-.6c2.2-1.8 1.7-5.1-.7-4.2-1.6.6-2.8 3.6-1.9 4.6.4.4 1.9.2 2.6-.4zm-5-1.2v-1.4l-1.1 1-1 1 1 .4 1 .4v-1.4zm96.8-.3c1.5-1.5 1.5-3.8 0-4-1.3 0-3 1.8-3 3.3 0 2 1.3 2.4 3 .7zm-36.6-.6c2.5-1 2.8-5 .5-5-2.6 0-4 5.2-1.6 5.4l1.1-.4zM337.4 569l-.1-7.4-4.3-2.6c-9.8-6-11-7.4-8.5-8.6 1.5-.6 1 2 3.2-23.4a22388.9 22388.9 0 0 1 4.7-56 5286 5286 0 0 1-73.2-45.6c-6.2-4.5-10-1 25.8-23.8l14.4-9.1 50.4 8 108.7 17.2L517 427l1.6-1a1155 1155 0 0 1 21.8-13.6l9.6-6c1.8-1 2.1-1.5 3.7-4.3a911.7 911.7 0 0 1 7.4-13.3c0-.5-11-1.4-32.8-2.8a678 678 0 0 1-19-1.4c-21-1.6-39.1-4.6-39.4-6.5-.1-1 .6-1.2 2.7-.6 8.7 2.3 29.1 4.7 53.3 6.3 14 .9 26.8 1.8 31.6 2.3l4 .4 1.2-2.5a96.8 96.8 0 0 1 10.7-16.5c1-1.1 1.3-1.7 1-1.8l-4-1c-5-1.3-11.1-3.1-14.6-4.3a660.8 660.8 0 0 1-34.1-12.5 857 857 0 0 1-12.5-5.3l-2.1-1-5.6 2.9a396 396 0 0 0-23.3 13 249.3 249.3 0 0 0-19.5 12.3s.6.7 1.5 1.2c3.5 2.4 5.9 4.5 5.8 5.2-.2 1.2-1.7.7-4.6-1.4a464.8 464.8 0 0 1-95-98.1l-2.6-3.7-.8 1.6c-.4.8-1.4 2.3-2.3 3.3-2 2.3-2.3 1.2 2.7 8.7a488 488 0 0 0 76.8 90.5c5 4.6 5.9 5.7 4.3 6A476.3 476.3 0 0 1 355 277.5a483.2 483.2 0 0 0-45-59.1 488 488 0 0 0-54.9-51.6 272.6 272.6 0 0 0-18.5-13.9 539.3 539.3 0 0 1-9.5-6.6 50 50 0 0 1-4.5-3l-4.4-2.9a2155.8 2155.8 0 0 1-16.5-10l-4.3-2.5A514 514 0 0 0 87 82.1l-3-.7v1l.4 3 .8 8A378.4 378.4 0 0 0 88 119a1929.5 1929.5 0 0 1 1.6 11.7l1.5 9.7a1163.3 1163.3 0 0 0 6.6 37.7 406.5 406.5 0 0 0 4.4 20c2.1 9.6 2.7 11.7 5.9 23.8a716.3 716.3 0 0 0 43.7 120.4 532.7 532.7 0 0 0 22.7 44l3 5.5 9.3 15.7a779.8 779.8 0 0 0 32.6 48 394.6 394.6 0 0 0 16.9 21.8c4 5.4 19 22.4 31 35.4a685.5 685.5 0 0 0 70.3 63.7V569zm116-192c-.8-1 .2-1.8 3.6-2.7 1.9-.5 2-.5 2.4 0 .6.9.2 1.4-1.3 1.8l-2.6.8c-1.6.6-1.6.6-2 0zm390.7 199c2-1 2.5-4.4.8-4.6-2-.3-4.3 3.3-3 4.6.6.5 1.1.5 2.2 0zm92.3-1.8c1.1-1.1 1.5-2.9.7-3.7-1.4-1.4-4.5 1.8-3.8 4 .3 1 2 .9 3.1-.3zm-99.9-1c1.3-.7 2-3.5 1.2-4.4-1.6-1.6-4.6 1.7-3.8 4 .4.8 1.5 1 2.6.4zm-5-1.4v-1.4l-1 1-1 1 .9.4c1.2.5 1.2.5 1.2-1zm97-.3c1.2-1.2 1.5-3 .6-3.9-1.2-1.1-3.7 1-3.7 3 0 2.2 1.4 2.6 3.1.9zm-99.4-1.5c2.1-2.1 1.1-5.2-1.3-4-1.5.8-2.3 3-1.5 4.4.4.9 1.7.7 2.8-.4zm-5.3-1.2v-1.5l-1.1 1.2c-1.2 1.2-1.2 1.3-.5 1.5 1.2.5 1.4.4 1.6-1.2zm96.9 0c1.5-1.4 1.6-3.7.1-4-2.1-.6-4.1 2.7-2.9 4.5.7.9 1.5.7 2.8-.5zm-84.1-2.3c1.7 0 1.8 0 2.7 1.3l1 1.2.5-1.5.7-1.7c.1-.2-.2-.1-.7 0-2.5 1-4.6-.6-4.6-3.5v-1.7l-1 1c-3 3.1-6.9 1.9-6.9-2v-2l-.6 1c-2.5 4-8.5 1.6-7.2-3 1.4-5.4 8.3-5.6 8.3-.3v1.4l1-1c3.4-3.2 7.5-1.5 7 2.8-.3 1.3-.3 1.3.3.6 1.9-2.8 5.1-3.2 6.8-.9l.7 1 .7-1.4c1-1.7 1-2 .2-1.6-2.4 1.3-5.3-.7-5.1-3.4V551l-1 1c-3.2 2.9-7 1.4-6.7-2.5l.1-1.6-1 1.2c-3.2 3.4-8 1-6.8-3.3l.3-1-1 1.1c-3.7 4.5-9.2 1.1-6.7-4 2.3-4.9 8.7-3.5 7.9 1.6l-.2 1.2.6-1c2.4-3.6 7.4-2.5 7.4 1.6v1.5l.9-1c3-3 7.5-1.4 7 2.7l-.1 1 .9-.8c2.1-2.4 6.6-1.8 6.7.9 0 .6.6-.4 1.4-2.4l.5-1-.9.3c-2.5 1-4.6-.4-4.8-3.2l-.2-1.7-1 1c-3.2 3-7.7.7-6.6-3.5 1.5-5.8 8.7-5.8 8.3 0l-.2 1.6.6-1c2-2.9 7.3-2.8 7.3.2 0 .8.2.6 1.1-1.5l.8-1.8-.8.3c-2.6 1-5-.7-5-3.5V532l-.8.9c-3.3 3-7.8 1-7-3l.3-1-1 1c-3.6 4.3-9 .6-6.5-4.5 2.4-4.6 8.9-3.2 8 1.7l-.3 1 .8-1c2.8-3.4 7.5-2 7.2 2.2l-.2 1.9.6-1c1.7-2.8 7.3-2.8 7.3 0 0 .7.3.3 1.1-1.5.7-1.5.7-1.6.2-1.3-2 1-4.5-.1-5.2-2.2-1.3-4.6 5.1-9.2 7.6-5.3.8 1.4.8 1.3 1.8-.7.8-1.6.8-1.7.3-1.5-2.7 1.5-6-1-5.3-4.2l.2-1-.8 1c-2.9 3.5-7.5 2-7.2-2.1l.1-1.8-1.3 1.3c-3 3.1-7.3 1.3-6.8-2.8l.2-1.2-.8 1c-3 3.5-7.4 2-7-2.3v-1.4l-1.3 1.3c-3 3-7.2 1.4-6.8-2.6l.2-1.3-1.2 1.2c-3.8 4.1-8.8-.2-5.9-5.1 2.4-4.1 7.5-3.2 7.5 1.4 0 1.5 0 1.5.6.8 3-4 8.2-1.8 7.3 3l-.2 1 .6-1c2.4-4 8.5-2.2 7.5 2.2l-.2 1 1-1.2c3.1-3.2 7.3-1.6 7 2.6l-.1 1.7.7-1c2.9-3.7 8.1-1.9 7.3 2.5l-.2 1 .9-1c2-2.4 6.8-2.3 6.8.2 0 1 .6.4 1.3-1.1.8-2 .8-2-.2-1.6-2.7 1-4.9-.6-4.9-3.6v-1.3l-.6.8c-2.7 3.4-7.4 1.7-7-2.6l.1-1.7-.6 1c-2.5 4-8.3 2.2-7.5-2.3l.2-1-.7 1c-2.6 3.2-7.3 2.1-7.3-1.7 0-2.4 1-4 3.4-5.4.4-.3.2-.5-1.4-1-1.8-.6-1.9-.6-1.6-.1.5.9.3 2.8-.3 4-2.4 4.6-7.9 4.2-7.9-.5V492l-.8.9c-2 2.4-5.4 2.5-6.6.2-1.3-2.5.3-6.5 3-7.4.3 0-.3-.4-1.4-.8l-2-.7.4 1.3c1 3.6-3 7.6-6.2 6.3-3-1.2-2.8-6 .4-8.2l1.3-.8-1.1-.4c-2.6-1-2.4-1-2.3 1 .4 4.4-4.8 7.7-7.4 4.6-.5-.6-.8-1.2-.8-1.4 0-.4-.8 1-1.5 2.6-.4 1-.4 1 .2.7 2.5-1.3 5.1.5 5.1 3.6v1.3l1.3-1.1c3.9-3.5 8.3 0 6 4.8-2.1 4.5-7.8 3.8-7.8-.9v-1.9l-.6 1c-1.7 2.7-5.7 2.8-7 .2l-.4-1-.8 2c-.8 1.7-.8 2-.3 1.8 2.9-1.4 5.3.2 5.3 3.3 0 1.8 0 1.9.4 1.2 2.5-4 8.5-2.1 7.6 2.3-.2.9-.2.9.4.2 3.7-4.1 9-1.4 7.1 3.6-1.8 4.8-8.2 4.7-8.1-.2v-1.8l-1.1 1.2c-2.8 3-6.8 1.7-6.8-2.3v-1.4l-1.3 1.2c-2.1 2-4.6 2-5.9 0-.8-1.4-.8-1.4-1.8.7l-.9 1.7 1.2-.5c2.4-1 4.9.7 4.9 3.4 0 4.9-6.1 7.6-8.1 3.7l-.5-1-.8 1.8c-1 2-1 2 .6 1.6 3-.8 5.3 2.2 4.2 5.4-.2.7-.1.6.5-.3 2.6-3.8 7.6-3.1 7.6 1.2v1.5l.9-.8c3.2-3 7.3-1.2 6.7 2.9l-.2 1.2 1.2-1.2c2.9-3.3 7.7-1.4 7 2.7-1.2 5.9-8.4 6.8-8.4 1v-2l-.6.9c-2.4 3.8-8 2.3-7.5-2l.2-1.2-1 1.1c-2.9 2.8-6.8 1.4-6.8-2.4V525l-1 1c-2 2.3-5.4 2-6.5-.4l-.5-1-.8 1.8-.9 2.1c0 .2.2.1.5 0 2.8-1.5 6 1 5.3 4.2l-.2 1 1-1c2.8-3.4 7-2.3 7 1.7v2l.8-1.1c2.8-3.3 7.2-2 7.1 2.1v1.5l.8-1c3.6-4.2 9-.4 6.5 4.6-2.3 4.4-8.6 3.3-7.9-1.4l.2-1.3-.8 1c-2.8 3.5-7.5 1.9-7.1-2.4v-1.7l-.5 1c-2.4 4-8.4 2.2-7.5-2.3l.2-.9-1.3 1.3c-2.3 2.3-5.1 2-6.6-.7-.2-.5-.4-.3-1.2 1.2-.7 1.5-.8 1.8-.3 1.6 3-1.3 6 1 5.4 4l-.2 1 .7-.8c3.2-3.6 7.7-2 7.3 2.4l-.2 1.6.8-1c2.8-3.7 8.1-1.9 7.3 2.4l-.2 1.2 1-1.2c2.9-3.3 7.3-1.8 7 2.3l-.1 1.6.8-1c3.8-4.6 9.5 0 6.3 4.9-2.7 4-8 2.8-7.5-1.8v-1.7l-.5 1c-2.4 3.9-8.4 2.1-7.5-2.3l.2-.9-1.2 1.2c-3.1 3-6.6 1.7-6.6-2.3v-2l-1.3 1.3c-3 3.1-7.4 1.3-6.8-2.8l.2-1.3-.8 1c-2.3 2.7-5.5 2.7-7-.1-.3-.5-.5-.3-1.2 1.3l-.8 2 1.4-.6c2.6-1 4.7 1 4.5 4l-.1 1.8.6-1c2.3-3.9 8-2.4 7.5 2l-.2 1.2 1-1.1c3-3.2 7.2-1.8 6.9 2.3l-.1 1.9 1.3-1.4c3-3 7.2-1.5 6.8 2.6l-.2 1.3 1.2-1.2c1-1.2 1.4-1.3 3-1.4 2.7-.3 4 1.1 3.7 4v.8l.9-.8c3-3 7-1.4 6.8 2.5l-.2 1.9 1.3-1.4c3-3 6.8-1.8 6.8 2.3v1.6l1.3-1.3c1.2-1.3 1.4-1.4 3.1-1.4zm-5.2-25.3c-1.5-.5-2.3-2-2.2-4l.1-1.7-.7 1c-2.8 4.1-8.6 1.7-7.2-3 1.6-5.3 8.7-5.5 8.3-.2l-.1 1.7 1-1.2c2-2 4.4-2.4 6-.6 3 3.2-.8 9.1-5.2 8zm3.1-2.9c1.8-1.7 1.2-4.4-.7-4-1.7.5-3.3 3.8-2.2 4.8.5.5 2 .1 3-.8zm-8.6-2c1.8-1 2.5-3.7 1.2-4.5-1.8-1.1-4.8 2.9-3.2 4.4.6.7.9.7 2 0zm1.7-7.6c-3.5-1.9-1.6-8.3 2.5-8.8 3.4-.5 5.2 2.6 3.5 6.1-1.1 2.3-4.2 3.7-6 2.7zm2.8-2c2-1.1 2.6-4.7.7-4.7-2.2 0-4.1 3.3-2.8 4.6.7.7 1 .7 2 0zm-10.2-.6c-1.4-.4-2.3-1.9-2.3-3.8v-1.4l-.7.9c-3.1 3.6-8.4 1.2-7-3.3 1.7-5.8 9.4-5.3 8.3.6-.2.8-.2.8 1.1-.5 1.6-1.5 3.2-2 4.6-1.3 4.6 2.2 1.1 10.1-4 8.8zm2.7-2.4c2-1.7 1.8-5-.3-4.4-1.7.4-3.3 3.7-2.2 4.7.4.4 1.8.2 2.5-.3zm-8.2-2.5c2.6-1.3 2.3-5.7-.3-4.6-1.9.8-2.8 3.3-1.7 4.5.6.7.8.7 2 .1zm32.5 3.1c-1-.8-1.4-1.7-1.4-3.3v-1.3l-1.3 1.1c-2.9 2.6-6.2 1.6-6.6-2l-.2-1.3-.7.6c-3.2 2.9-7.6.8-6.7-3.2l.2-1-1 1c-3.6 4.4-9 .7-6.5-4.4 2.4-4.6 8.8-3.2 7.9 1.7l-.2 1 .7-.9c2.7-3.5 7.3-2.3 7.3 2 0 .9.1 1 .4.6 2-3.5 7.6-1.8 7.2 2.2l-.1 1.8.6-1c2-3.2 6.7-2.8 7.4.7.8 3.9-4.3 8-7 5.7zm3.9-2.4c1.6-1.6 1.4-4-.3-4-1 0-2.8 2-2.8 3.2 0 2.1 1.4 2.5 3 .8zm-7.8-2.7c1.6-1.6 1.5-3.9-.2-3.9-2 0-4 3.3-2.6 4.6.6.7 1.6.4 2.8-.7zm-7.8-2.6c1.1-1 1.5-2.4 1-3.4-.9-2-4.2-.1-4.2 2.3 0 2.2 1.6 2.7 3.2 1.1zm-7.6-3c.8-.7 1-1.2.8-2.2-.1-2.3-2.2-2.5-3.7-.3-2 3 .6 5.2 3 2.6zm-23.6 7c-3.6-1.6-2.3-7.7 1.9-8.8 5-1.4 6.2 6.2 1.4 8.6-1.6.8-2 .8-3.3.2zm2.8-2.1c1.3-.7 2-3.5 1.2-4.4-1.3-1.2-3.8.6-3.8 2.8 0 1.8 1 2.4 2.6 1.6zm141.7 49c1-1 1.3-3 .6-3.8-1-1-3.6.4-4 2.3-.4 2.4 1.6 3.3 3.4 1.5zm-128 .1 1.1-1.4c1.4-2.7-.6-4.4-2.6-2.3-2.3 2.3-1 5.5 1.4 3.7zm-5-1.2V565l-.5.7c-.3.4-1 .9-1.3 1-.7.2.5.9 1.7 1 .1 0 .2-.5.2-1.3zm33.6-.6c1.6-1.9 1.4-4.1-.4-4.1-2 0-3.6 2.5-3 4.3.5 1.2 2.3 1.2 3.4-.2zm63.1.6c.9-.6 1.5-2.1 1.4-3.3-.3-2.5-4.1-.6-4.1 2 0 1.8 1.2 2.3 2.7 1.3zm39.8-3.1v-2.5H951c-2 0-3.3-1.4-3.3-3.7v-1.7l-.8 1c-2.8 3.3-7.3 1.8-7-2.4l.1-1.9-.5 1c-3 5-9.5 1.5-7-3.7 2.1-4.9 8.6-3.9 7.9 1.2l-.2 1.3.8-1c2.9-3.7 8.1-1.9 7.3 2.5-.2.9-.2.9 1.1-.4.7-.7 1.6-1.2 2-1.2.9 0 1-.5.8-3.2l-.3-2.4-1 1c-3 2.8-6.8 1.3-6.5-2.7l.1-2-.6 1c-2.2 3.7-7.4 2.7-7.4-1.5v-1.6l-1 1c-2.2 2.4-5.5 2.2-6.6-.2l-.3-1-.8 1.7c-1 2-1 2 .2 1.5 2.3-.8 4.5 1 4.5 3.6 0 4.5-5 7.3-7.6 4.3l-1-1-.7 1.4c-.8 1.7-.8 1.8.6 1.4 2.6-.8 4.7 1 4.4 4v1.6l.6-1c2.5-3.6 7.4-2.3 7.3 2v1.3l1-1c3-3.2 7.2-1.5 6.8 2.7l-.1 1.6 1-1.3c2.7-3 7-2 7 1.9 0 .8.1 1.4.3 1.2l.2-2.8zm-11.9 1.7c1.5-1 2.1-3.2 1.2-4.1-1.2-1.2-4 .8-4 2.8 0 1.8 1.3 2.4 2.8 1.3zm-132-1.4V562l-1.2 1.2c-.7.6-1.1 1.1-1 1.2l2 .8.1-1.6zm4.7 1.3c1.3-.7 2.1-3.5 1.2-4.4-.7-.7-1.9-.4-3 .7-2.2 2.2-.8 5.1 1.8 3.7zm91.6-1.3c1-.7 1.7-2.6 1.4-3.5-.5-1.7-2.9-1.3-3.9.6-1.3 2.6.4 4.6 2.5 3zm-63.7 0c2.6-2.1 1.8-5.7-1-4.3-1.6.8-2.5 3.3-1.5 4.3.5.4 1.8.4 2.5 0zm92-1.7c2.5-2.6.5-5.6-2.1-3.2-1.2 1.1-1.6 3-.8 3.7.8.9 1.7.7 2.9-.5zm-132.5-1v-2l-1.3 1.4-1.3 1.2 1.3.6 1.3.5v-1.8zm4.9 1.2c1.6-1 2-3.9.7-4.6-1.9-1-4.6 2.5-3.4 4.4.6.9 1.6 1 2.7.2zm91-.9c2.2-1.2 2.6-5 .4-5-1 0-2.7 1.8-2.8 2.7-.2 2.5.6 3.2 2.3 2.3zm-63.6-.2c2.7-1.2 2.5-5.9-.2-4.7-1.7.7-2.7 3-1.9 4.5.4.7 1 .7 2 .2zm681.3-2.3a26 26 0 0 0-6-25.8l-1.5-1.7.6 2.2c1.4 5 .2 13.9-2.6 19.4-1.2 2.4-1 2.8 1.6 4.2l4.5 2.5c2.7 1.5 2.6 1.6 3.4-.8zm-653 .6c2-1.7 2-4.3 0-4.3-1.2 0-2.9 1.9-2.9 3.3 0 2 1.3 2.3 2.9 1zm64.2-.2c1.6-1.9 1.3-4.1-.4-4.1-2 0-3.7 2.5-3 4.3.5 1.2 2.3 1.1 3.4-.2zm-132.8-.5c0-.7 0-1.7.2-2.2l.3-1-.6 1c-.4.6-1 1.3-1.5 1.7l-.9.7 1 .5c1.6.6 1.6.6 1.5-.7zm5.3.3c1.2-1.1 1.6-3.2.7-3.8-.9-.7-1.7-.5-2.9.6-2.5 2.6-.4 5.6 2.2 3.2zm154.5-.7c.4-.6.2-4.2-.2-4.2-1.5 0-3 3.4-2 4.4.6.6 1.8.5 2.2-.2zm-126.5-.5c1.5-1.5 1.4-4-.2-4.3-1.8-.2-3.6 2.5-2.9 4.3.4 1 2 1.1 3 0zm63.4.3c1.5-1 1.8-4 .4-4.2-1.8-.3-3.5 1.3-3.5 3.2 0 1.4 1.6 2 3 1zm28.1-1.5c1.2-1.3 1.5-3 .6-4-1.2-1-3.7 1-3.7 3 0 2.3 1.4 2.7 3.1 1zm-127.4-.2c1-.8 1.5-2.4 1.1-3.4-.6-1.6-3-.9-4 1.3-1.2 2.3 1 3.8 2.9 2.1zm63.8-.2c1.6-1.8 1.3-4-.4-4-1.8 0-3.4 2.6-2.8 4.3.5 1.3 2 1.1 3.2-.3zm-69-.7V554l-1.2.9c-1.3 1.1-1.3 1.2 0 1.6l1 .4.1-1.5zm160.5-.2c1.8-1.9 1.2-4.9-.9-4.2-1 .3-2.2 2-2.2 3.3 0 2.2 1.3 2.6 3 .9zm-63.8.1c1-.7 1.6-2.6 1.3-3.5-.4-1.3-2.8-1-3.8.4-1.6 2.6.2 4.9 2.5 3.1zm-63.7-.3c2.3-1.8 1.3-5.3-1-4-1.5.7-2.6 3.6-1.8 4.4.5.4 2 .2 2.8-.4zm27.7-1.2c1.6-1.3 2-3.6.7-4.3-1.9-1-4.3 2.5-3.2 4.5.4.9 1.3.8 2.5-.2zm63.4.4c2-1 2.5-4.4.7-4.6-2-.3-4.2 3.3-2.9 4.7.5.5 1 .5 2.2-.1zm-131.8-.4c0-.2-.2-.4-.4-.3-.1.2-.2.4-.1.5.3.5.5.4.5-.2zm5-.3c1.2-1 1.7-3 1-3.8-1.2-1.5-4.1.4-4.1 2.6s1.5 2.7 3.2 1.2zm720 .3.7-1.7c4-7.8 4-19.1-.2-23.2a4039 4039 0 0 0-97.6-56.7s.1.9.4 1.7c1.7 4.8.7 12.8-2.4 21l-.8 2a76 76 0 0 0 7.8 4.5c28.6 15.7 59 33.2 81.6 46.8 10.8 6.5 10.6 6.4 10.6 5.6zm-629-1c1.6-.7 2.5-3.5 1.5-4.5-1.2-1.2-4.1.9-4.1 3 0 1.8 1 2.4 2.6 1.6zm64 0c1.2-1 1.8-2.9 1.3-3.9-.9-1.5-3.6-.1-4 2.1-.5 2.1 1 3 2.8 1.7zm-127.5-.2c1.6-1.1 2.1-3.3 1.2-4.4-.8-.8-1.2-.7-2.5.4-2.4 2.1-1.2 5.8 1.3 4zm-35.2-2c1.6-1.6 1.4-4.3-.3-4.3-1 0-2.8 2-2.8 3.2 0 2.4 1.3 3 3 1.2zm63.6.2c1.8-1.6 1.8-4.1-.1-4.1-2 0-3.8 2.7-2.8 4.3.7 1 1.5 1 2.9-.2zm63.2.7c1.3-.7 2.1-3.6 1.2-4.5-1.5-1.5-4.6 1.8-3.7 4.1.3.7 1.5 1 2.5.4zM769 549.9c0-4.8 5.7-7.6 8-4l.5 1 .6-1.6.7-1.5H777c-2.5 0-3.5-1-3.5-3.6v-2l-.7 1c-3 3.9-8.4 1.5-7.2-3.1 1.5-5.6 8.8-5.3 8.3.3l-.1 1.5.5-1c1.5-2.4 4.8-3 6.6-1l1 1 .7-1.4.7-1.5-1.2.2c-2.6.6-4.9-1.5-4.5-4.3l.2-1.2-.9 1c-2.9 3.4-7.3 2-7-2.3v-1.5l-1.2 1.3c-3.7 4-8.6.3-6.2-4.6 2.4-5 8.9-3.4 7.8 2l-.2 1 .7-1c2.3-3.8 7.4-2.7 7.4 1.7v1.4l.7-.8c2-2.4 6-2.5 6.8-.2.3 1 1.7-.6 1.7-2H786c-4.3.4-5.1-5.4-1.2-8.4 1.9-1.3 5.7-.4 5.7 1.4 0 .7.3.3 1.1-1.5l.8-1.6-.8.3c-3.2 1.2-5.8-1.4-4.8-5l.2-1-.7 1.2c-2.5 3.7-7.6 2.8-7.6-1.4v-1.3l-.8.7c-3 2.8-6.8 1.6-6.8-2.1v-2l-.7 1c-3 3.4-7.3 2-7-2.2 0-2 0-2-.5-1.2-2.4 4.1-8 2.8-7.5-1.7l.1-1.4-.8 1c-3 3.6-8.3 1.5-7-3 .4-1.5.4-1.5-.7-.2-3 3.6-7.2 2.6-7.2-1.7 0-1.7 0-1.8-.5-1.1-1.6 2.7-5.3 3-7 .6l-.6-1-.4.8c-1.3 2.8-1.3 3-.7 2.7 2.6-1.4 5.2.4 5.2 3.5v1.3l1.2-1.1c3.1-2.8 6.7-1.4 6.6 2.5v1.6l1.3-1.4c3.8-3.8 8.5.5 5.8 5.2-2.5 4.3-8.6 2.7-7.7-1.9l.2-1-.6.8c-2.8 3.5-7.7 2.1-7.4-2l.2-1.8-.7 1c-1.7 2.7-5.7 2.9-7 .3l-.5-1-.5 1.4-.7 1.7c-.1.3.2.3 1 0 4.7-1.2 6.3 5.4 2.1 8.3-2 1.4-5.8.8-5.8-1 0-1-.5-.4-1.3 1.3l-.9 1.7 1.3-.5c2.7-1 5 1.2 4.6 4.1l-.1 1.2.8-1c3-3.5 7.5-1.9 7 2.7l-.1 1.6.6-1c3.1-5.2 9.7-1.6 6.9 3.9-2.3 4.3-7.8 3.7-7.8-.8v-1.7l-1 1c-2.9 3.2-6.8 1.9-6.8-2.2V522l-1 1c-2.2 2.2-6.7 1.8-6.7-.5 0-.7-.6 0-1.2 1.3l-.6 1.6.8-.1 1.3-.4c2.2-.6 4.2 2.6 3.5 5.5l-.3 1 .7-1.2c2.6-3.7 7.1-3.2 7.6.8l.1 1.5 1-.8c3.1-2.7 7-1 6.6 2.9l-.2 1.3.8-.9c3.1-3.7 8.4-1.5 7.1 3-.4 1.5-.4 1.5.7.1 3-3.7 7.8-2.3 7.2 2.2l-.1 1.4 1.1-1.3c3.9-4.3 9-.2 6 5-.3.6-1 1.4-1.5 1.8l-1 .6 1.5.5 1.5.5-.2-1.1c-.5-2.8 1.9-6 4.6-6.2 4.2-.4 5.4 5.6 1.7 8.1-1.3.8-.8 1.4 1.3 1.7.2 0 .3-.6.3-1.4zm-10.4-12.6c-.7-.8-.8-1.4-.8-2.6V533l-1.3 1.2c-3.2 2.8-7.2 1-6.6-3l.2-1.3-1.2 1.3c-3.6 3.8-8.8.2-6.4-4.4 2.4-4.6 8-4 8 .8 0 1.4 0 1.4.5.8 3-3.5 7.7-2.2 7.3 2l-.1 1.8.6-1c2-3.1 6.7-2.7 7.4.8.9 4.2-5 8.3-7.6 5.3zm4.5-2c1.1-1.2 1.5-3 .7-3.7-1.6-1.6-4.8 1.8-3.8 4 .5 1 1.7 1 3-.4zm-8.6-2c2.2-1.1 2.6-5 .5-5-2.3 0-4.2 3.8-2.5 5 .7.6 1 .6 2 0zm-7.6-2.8c1.4-1.2 2-3.5 1.2-4.4-.7-.6-1.9-.4-2.8.6-2 2-.6 5.5 1.6 3.8zm9.3-4.8a4 4 0 0 1-2-3.4l-.1-1.3-1 1c-2.7 2.6-6.5 1.2-6.5-2.4V518l-1.3 1.1c-3 2.8-7.1 1.1-6.7-2.8l.2-1.3-1.2 1.2c-3.8 4.1-8.8-.1-6-5 2.4-4 7.6-3.1 7.6 1.2 0 1.7 0 1.7.6 1 2.6-3.5 7.2-2.4 7.2 1.7v2l.7-1.1c2.4-3.5 8.3-1.6 7.3 2.4-.1.7 0 .7 1.1-.4 1.8-1.7 4.1-1.7 5.5-.2 3 3.2-1.5 9.9-5.4 7.9zm3-2.3c.9-.6 1.5-2.1 1.4-3.3-.2-2-3.4-1-4 1.3-.7 2.1.9 3.2 2.6 2zm-7.3-3.2c1.4-1.4 1.5-3.2.3-3.8-1.1-.5-2.2 0-3 1.4-1.8 2.9.4 4.7 2.7 2.4zm-8-2.5c1.3-1.1 1.6-2.5 1-3.6-1.4-2-4.9.7-4.2 3.2.4 1.6 1.6 1.8 3.1.4zm-7.6-3c1.6-1.8 1.3-4-.5-4-1.1 0-2 .5-2.5 1.6-1.6 3 .8 4.9 3 2.4zm39 6.3c-1.7-1.7-1-5.7 1.3-7.4 3.4-2.4 7.2.2 6.1 4.2-1 3.6-5.1 5.4-7.4 3.2zm4.4-2c2.6-2.6.6-5.6-2.1-3.2-1.2 1-1.6 2.9-.8 3.7.8.8 1.7.6 3-.6zm-11.3-.1c-1.3-.6-2.1-2.1-2-3.9l.2-1.3-.8.9c-2.9 3.5-7.3 2.1-7-2.2.1-2 .1-2-.4-1-3.2 5-9.6 1.6-7-3.8 2.3-4.8 9-3.4 7.8 1.8l-.2.8.7-.9c2.8-3.6 7.3-2.4 7.4 2v1.5l.6-.9c1.9-2.5 5.6-2.6 6.8-.1 1.9 4-2.2 8.8-6 7zm3.6-2.8c2.3-2.7.4-5.7-2-3.2-1.2 1.1-1.6 2.4-1 3.4.4 1.2 2 1.1 3-.2zm-8-2.6c1.3-1.3 1.5-3 .5-3.9-1.2-1-3.5.9-3.5 3 0 2.2 1.3 2.6 3 .9zm-8-2.5c1.7-1.6 1.6-4.4-.2-4.4-1 0-2.5 1.6-2.7 3-.4 2.2 1.2 3 3 1.4zm46.3 38c1.5-1.4 1.1-4-.5-4-1 0-2.8 2-2.8 3.2 0 2.2 1.6 2.7 3.3.9zm63.4.8c1-.9 1.6-2.6 1.2-3.7-.7-1.9-3.8-.5-4.4 2-.5 2 1.4 3 3.2 1.7zm63.9-.5c1.4-1.7 1.3-4-.3-4-.9 0-2.3 1.3-2.8 2.4-1 2.6 1.2 3.7 3 1.6zm-36-1c1.5-1.4 1.8-3.6.4-4.3-1.2-.7-3.4 1.4-3.4 3.2 0 2 1.5 2.5 3 1.1zm-524-14.5 40.6-15-1-.6-37.8-23.4-36.8-22.8-.3 1.2c-.2 1-5.2 60.4-6.2 72.8-.2 2.5-.1 2.9.3 2.8l41.2-15zm396.1 14.5c2.1-1 2.7-4.6.7-4.6-2.2 0-4 3.2-2.7 4.6.6.6.9.6 2 0zm64 0c2.8-2 1.7-5.9-1.2-4.3-1.3.7-2.1 3.5-1.2 4.4.5.5 1.8.5 2.5 0zm92-1.5c2.2-2.1 1.3-5-1.1-4.1-1.8.6-2.8 3.5-1.7 4.6.8.8 1.7.6 2.9-.5zm-63.7-.2c1.2-1 1.5-3.4.5-4-.9-.6-2.7.6-3.3 2-1 2.6.7 3.9 2.8 2zm-63.7-.3c1.7-1.8 1.6-3.9-.2-3.9-1.7 0-3.4 2.2-3 4 .4 1.2 2 1.1 3.2 0zm155.5-1c1-1.2 1.3-3.3.4-3.7-2.4-.9-5 2.6-3.4 4.4.7.8 1.9.5 3-.7zm-128 .5c1.8-1 2.3-4.3.6-4.8-2-.7-4.4 3-3 4.7.6.7 1.1.7 2.3 0zm63.6 0c.4-.3.9-1 1.2-1.5 1.3-2.7-.6-4.3-2.7-2.2-2.3 2.2-1 5.4 1.5 3.6zm-132-1.5-.2-1.6-.9 1c-.5.5-1 1-1.2 1-.8 0-.3.5.7.8 1.6.6 1.6.5 1.5-1.2zm5.1.8c1.3-1.2 1.6-3.4.5-4-1.4-1-3.5 1-3.5 3s1.5 2.4 3 1zm91.3-.8c1.9-1.5 2-4.5.2-4.7-1.8-.3-3.8 3.5-2.5 4.8.7.7 1.2.7 2.3-.1zm-63.4-.7c1.2-1.2 1.5-3 .7-3.7-1.1-1.2-3.7 1-3.7 3 0 2.2 1.3 2.4 3 .7zm-327.2-11.3a180.1 180.1 0 0 1 18.1-34.4 146.4 146.4 0 0 1 9-11.7c1-1.4 2.6-3.2 3.3-4 5.4-5.9 4.6-4.4 17.8-29.2l12.5-23.4-.8-.2a34958.1 34958.1 0 0 0-219.6-34.6c-1 .4-41.9 26.5-41.9 26.6l98.8 61.4L455 544l1.6-4.6 2.5-7zm-4.8-43c-2.5-1.2-3-4.7-1.3-8 1-1.7 25-20.4 29-22.5 5.5-2.8 9.3 5 4.7 9.5a652 652 0 0 1-27.9 20.9c-1.7.9-3 .9-4.5.2zm4-2.1a643 643 0 0 0 27.2-20.7c1.5-2 1.8-5 .4-5-1.2 0-28 20.1-29.2 22-1.8 2.6-.8 4.9 1.5 3.7zm1.4-9.1 1.2-1-1.5 1c-1.7 1.3-2.3 1.8-1.4 1.3a12 12 0 0 0 1.7-1.3zm2-1.5c.4-.5.4-.6-.1-.2-.6.5-.7.7-.5.7.1 0 .4-.2.6-.5zm1.3-1c.4-.5.4-.5-.1-.1-.6.4-.7.7-.5.7l.6-.6zm1.3-1c.4-.5.3-.5-.2 0-.5.3-.7.6-.4.6l.6-.6zm-27.5 9.6c-2.6-1.6-2.7-6.1-.3-9 .5-.6 6.7-5.3 13.6-10.5l13-9.8c2.6-3.3 8.5-1 8.5 3.2 0 3.8-.8 4.6-16 16-15.6 11.5-16 11.8-18.8 10zm6-3.2c21-14.9 27.5-20.6 26.7-23.6-.5-2-.7-1.9-15.5 9.5l-11.7 9c-2.8 2-3.7 3.4-3.7 5.5v1.5l1-.2c.6-.1 2-.9 3.2-1.7zm-4.5-4.4c.4-.5.4-.6 0-.2l-.6.6c0 .3.2 0 .6-.4zm5.8-4.8-2 1.3-1.9 1.7s.9-.5 2-1.4l1.9-1.6zm1-.7c.4-.5.3-.5-.2-.1s-.7.7-.4.7l.6-.6zm-24.6 8.7c-2.6-.5-3.8-4.6-2.3-7.9.8-1.6 1.3-2 15.1-12.5l14.4-10.8h2c5 0 6.4 7 2.1 10.3a682.4 682.4 0 0 1-27.4 20.3 5 5 0 0 1-3.9.6zm3.2-2.5c3.1-1.3 27.4-20.4 28.2-22.3 1-2.4.3-3.9-1.6-3.2-1.8.7-27.9 21-28.4 22.2-1.4 2.8-.6 4.3 1.8 3.3zm-21.4-3c-2.4-1.6-2.8-5.5-.9-8.1 1-1.4 27.5-21.6 29.3-22.4 4.4-1.8 8 3 5.6 7.6-1 2-.1 1.3-15.9 13L407 474.8l-1.8.1c-1.5 0-2 0-2.8-.6zm5-2.5c18.2-12.5 29.1-22.2 27.5-24.7-.7-1.2-25.4 16.4-29.2 20.8-2.8 3.3-1.6 6.1 1.7 3.9zm-5-2.4c0-.3-.1-.2-.1.2 0 .3 0 .5.1.4.1-.1.2-.4 0-.6zm1.6-3c-.1-.2-1.4 1.8-1.4 2.2 0 .2.3-.3.8-1 .4-.6.7-1.2.6-1.3zM941.5 543c1.1-.8 1.8-2.8 1.2-3.8-.8-1.5-3.6-.1-4 2.1-.4 2.1 1.1 3 2.8 1.7zm-196-1.5v-1.8l-1.3 1.2c-.6.6-1.3 1.2-1.6 1.2l1.2.6 1.6.6v-1.8zm4.6 1.4c2.6-1.4 2.3-5.7-.3-4.7-2 .8-2.9 3.3-1.8 4.6.7.7.9.7 2 0zm63.5.1c1.5-.5 2.7-3.4 1.7-4.4-1.4-1.4-4.1.7-4.1 3.1 0 1.4 1 2 2.4 1.3zm64.4-.4c2.2-2.3 1-5-1.5-3.7-1.2.6-2.1 3.5-1.4 4.2.5.6 2.3.2 3-.5zm-99-1.8c.7-.8.9-1.2.8-2.3-.2-2.3-2.2-2.5-3.7-.3-2 2.9.5 5 2.9 2.6zm63.3.4c1.6-1.6 1.5-4.2-.2-4.2-1.8 0-3.6 2.9-2.8 4.4.6 1 2 .9 3-.2zm105.2-1.7c.5-.2 1.5-.3 2.2-.2h1.3l-1.3-1.3c-1.2-1.3-1.3-1.4-1.2-2.9l.1-1.5-1 1c-2.9 2.9-7 1.3-6.7-2.5l.1-1.5-1 1.1c-2.3 2.4-5 2.3-6.5-.2l-.6-1-.8 2c-.8 1.7-.8 1.9-.3 1.6 2.8-1.5 5.4.6 5 4v1.7l.5-.9c2.5-4 8-2.9 7.6 1.6l-.2 1.5 1-1a5 5 0 0 1 1.8-1.5zm-13.5.6c.8-.7 1.2-2.4.9-3.4-.7-2.1-4-.1-4 2.5-.1 2 1.4 2.4 3.1.9zm-196.2-1.5v-2.2l-.6 1c-.3.4-1 1.1-1.6 1.5l-1 .6 1 .4 2.2.9zm131.9 1.7c1.6-1.1 2.2-3.6 1-4.4-1.8-1.3-4.6 2.2-3.4 4.1.6 1 1.4 1 2.4.3zm-126.7-1c1.3-1.2 1.2-3.7-.2-3.9-1.5-.1-3 1.4-3 3.1 0 2.1 1.5 2.5 3.2.9zm63.7.2c2-1.9 1-4.8-1.3-3.7-1.4.8-2.5 3.6-1.7 4.5.6.5 2.2.1 3-.8zm-35.8-1.2c1.1-1.1 1.5-2.4 1-3.4-1-2-4.2-.2-4.2 2.3 0 2.2 1.6 2.7 3.2 1zm90.9-.5c2.3-1.3 2.5-5 .2-5-1 0-2.8 2-2.8 3.3 0 1.9 1 2.5 2.6 1.7zm64.2-.6c1-1 1.5-2.6 1-3.4-.9-1.8-4.1.3-4.1 2.7 0 1.8 1.5 2.1 3 .7zm-196.2-1v-1.7l-1 1c-.7.7-1.4 1.1-1.7 1.2-.4 0 1.9 1.1 2.5 1.2 0 0 .2-.7.2-1.7zm68.5 1.2c2.6-1.8 2-5.9-.7-4.5-1.7 1-2.5 3-1.6 4.3.6.8 1.3 1 2.3.2zm-63.5-.4c1-.8 1.7-2.6 1.4-3.5-.7-2.1-4.4 0-4.4 2.5 0 1.7 1.5 2.2 3 1zm-12.6-2.6c-.2-.6-.3-1.4-.2-2l.2-1-1 1.2c-.6.6-1.3 1.2-1.5 1.2-.9 0-.2.5 1.2 1l1.6.5-.3-1zm67.9.5c2.3-1.2 2.7-5 .5-5-1.9 0-3.5 3.7-2.3 5 .7.6.6.6 1.8 0zm64.5-.6c.4-.3.9-1.1 1-1.7 1.1-3-2.5-3.3-4-.2-1.2 2.3 1 3.7 3 2zm63.8 0c1-1.3 1.3-3 .6-3.7-1.7-1.6-5 2-3.7 4 .8 1.1 1.9 1 3-.4zm-191.5.1c1.8-1 2.2-3.7.7-4.6-1.2-.7-3.5 1.5-3.5 3.3 0 1.9 1 2.4 2.8 1.3zm219.1-1c1-.7 1.7-2.5 1.4-3.5-.5-1.3-2.9-1-3.8.5-1.7 2.5.1 4.8 2.4 3zm-127.6-.1c1.4-1 1.9-3.7.8-4.4-1.4-.9-3.5 1-3.5 3.1 0 1.7 1.3 2.3 2.7 1.3zm-104-1.3c-.1-.3-.3-.5-.4-.5v.5c0 .3 0 .5.2.5s.3-.2.2-.5zm132.3-.4c1.1-1 1.6-3 1-3.8-1.2-1.4-4.2.4-4.2 2.7 0 2.1 1.5 2.7 3.2 1.1zm-127.6.2c1.3-.7 2-3.5 1.2-4.4-.7-.7-2-.4-3 .7-2.3 2.3-.9 5.1 1.8 3.7zm64-.6c1.7-2 1.6-3.8-.2-3.8-1.7 0-3.4 2.2-3 4 .4 1.2 2.2 1 3.2-.2zm154.5-.2c1.6-.8 2.5-3.6 1.5-4.5-1.8-1.9-5.3 2.5-3.5 4.4.6.7.8.8 2 .1zm-127.1-.3c2.4-1.6 2-5.7-.5-4.6-1.9.7-3 3.5-1.8 4.6.6.6 1.2.6 2.3 0zm63.7 0c1.4-1 2.1-3.4 1.3-4.2-1.6-1.6-5 2-3.8 4 .4.8 1.5.9 2.5.2zm69.4-3.2 1-.7-1.3-.4-1.8-.6c-.3 0-.4 0-.2.3.3.4.3 2.6 0 3.6-.2.5 0 .3.5-.4.4-.6 1.2-1.4 1.8-1.8zm-104.7 1.3c2-2 1.2-5-1-4.1-1.9.6-3 3.4-1.9 4.6.8.9 1.7.7 3-.5zm-63.7-.3c1.3-1.2 1.5-3 .6-3.8-1.1-1.2-3.6.8-3.6 3s1.3 2.5 3 .8zm155.1-.5c1.1-.9 1.7-2.5 1.2-3.6-.7-2-3.7-.6-4.3 2-.4 2 1.4 3 3.1 1.6zm-127.7-.2c1.5-.8 2.4-3.3 1.5-4.2-1.4-1.4-4.1.7-4.1 3 0 1.6 1 2 2.6 1.2zm64.3-.4c1.5-1.5 1.2-4.2-.4-4.2-1 0-2.8 2-2.8 3.3 0 2 1.6 2.5 3.2.9zm-127.6 0c1-.8 1.6-2.6 1.3-3.5-.4-1.5-2.6-1-3.6.7-1.6 2.5 0 4.5 2.3 2.8zm28.1-1.7c1.2-1.2 1.4-2.3.8-3.3-.9-1.3-2.6-.8-3.6 1.1-1.4 2.8.7 4.5 2.8 2.2zm91-.4c1.7-1.1 2.2-3.3 1.1-4.3-.7-.8-1.6-.6-2.7.6-2.1 2.2-.7 5.3 1.7 3.7zm64.4-.6c1.7-1.8 1.3-4-.7-4-1 0-2.7 2-2.7 3.2 0 2.1 1.6 2.5 3.4.8zm-191-.4c1.5-1.7 1.3-4-.3-4-2.2 0-3.8 3.2-2.5 4.8.5.6 1.9.2 2.8-.8zm63.7.2c1-1 1.4-3 .6-3.8-1-1-3.6.4-4 2.3-.4 2.4 1.6 3.3 3.4 1.5zm141.1-.2c0-.4-.6-.4-.7 0-.1.3 0 .4.3.3l.4-.3zm-2.7-.7c.1-.2 0-.4-.3-.5-.3-.1-.4 0-.3.3.2.5.4.6.6.2zm-19.2-1.3c1.7-1.5 1.7-4.2-.1-4.2-2 0-3.8 3.5-2.5 4.7.5.5 1.7.2 2.6-.5zm-127.4 0c1.6-1.3 2-3.8.5-4.5-1.3-.8-3.6 1.3-3.6 3.1 0 2 1.5 2.6 3 1.4zm-63.7-.4c1-.8 1.6-2.5 1.2-3.6-.5-1.3-1.9-1.2-3.2.3-2.1 2.4-.5 5.3 2 3.3zm196.5-2.8 1-.5-1.1-.4c-2.7-.9-2.7-.9-2.2-.1.2.4.3 1.3.2 2l-.2 1.3.7-.8c.3-.5 1-1.2 1.6-1.5zm-13.1.3c1.5-1.6 1.4-4.2-.2-4.2-1.8 0-3.5 2.5-2.8 4.3.4 1.1 1.8 1.1 3 0zm5.1-2.9 1-.6-1.2-.5c-2.3-1-2.6-1-2.1-.2.2.4.3 1.4.2 2.3l-.1 1.5.6-1a7 7 0 0 1 1.6-1.5zm-40.7 1.3c1.2-1.2 1.3-3.3.3-3.9-1.4-.7-3.9 1.4-3.9 3.2 0 1.8 2 2.2 3.6.7zm27.7-1.1c1.8-1.9 1.2-4.9-.9-4.2-1 .3-2.2 2-2.2 3 0 2.4 1.3 2.9 3 1.2zm-36.1-1c1.5-1.1 2.1-3.5 1-4.5-1.3-1.2-3.8.8-3.8 3 0 1.9 1.2 2.6 2.8 1.5zm-63.5-.5c.9-.7 1.6-2.6 1.3-3.5-.7-2-4.3 0-4.3 2.5 0 1.7 1.4 2.2 3 1zm105.2-1.6 1-.4-1.6-.6c-2.2-.8-2.4-.8-2 .4.2.5.3 1.4.2 2l-.2 1 .8-1c.4-.5 1.2-1.2 1.8-1.4zm-14.1.8c2.1-1.1 2.6-4.6.6-4.6-2.2 0-4 3.2-2.7 4.6.6.6.9.6 2 0zm-99-2c1.8-1.5 1.7-4.6 0-4.6-1.3 0-3.3 2.9-3 4.1.7 1.6 1.6 1.8 3 .5zm64.1 0c.7-.8 1-1.3 1-2.2 0-2.3-1.6-2.7-3.2-1-2.4 2.7-.3 5.6 2.2 3.1zm-127.7 0c1.6-1.1 2-4 .5-4.4-2.1-.6-4.7 3-3.2 4.5.7.6 1.7.6 2.7 0zm91-.9c1.7-.8 2.7-3.3 1.7-4.2-1-1.1-4 .4-4.1 2.2-.1 2.2.6 2.9 2.4 2zm64 0c1.5-1 2-3.7.8-4.4-1.4-.8-3.5 1-3.5 3.2 0 1.6 1.4 2.2 2.8 1.2zm5.6-3.2c1-.7 1-.8.5-1l-1.7-.6c-1.3-.6-1.4-.5-1 .8.4 1 .3 1.7-.2 3.1-.1.3.1.1.6-.5.4-.6 1.2-1.4 1.8-1.8zm-104.8 1.5c1.2-1 1.7-2.7 1-3.7-.7-1.2-1.8-1-3 .3-2.2 2.5-.5 5.3 2 3.4zm64-.4c1.6-2 1.5-3.8-.2-3.8-1.8 0-3.4 2.2-3 4 .3 1.2 2.1 1.1 3.2-.2zm27.4-.6c1.3-1 1.9-2.9 1.2-4-.9-1.3-2.7-.7-3.6 1.2-1.2 2.6.3 4.3 2.4 2.8zm-63.7 0c2.2-1.8 2.2-4.8 0-4.8-2 0-3.8 3.4-2.5 4.7.5.5 1.9.5 2.5 0zm-63.2-.8a4 4 0 0 0 1-1.6c.8-3.3-2.9-3.3-4 0-.8 2.2 1.3 3.3 3 1.6zm41.2-1.6c2-1 4-.5 5 1.2l.5 1 .7-1.4c1-2 1-2-.8-1.7-2.3.3-3.9-1.2-3.9-3.7v-1.6l-1 1c-3 3-7.2 1.5-7-2.4l.2-1.4-1.2 1.2c-3 3.1-7.8.9-6.7-3.2.2-.8.2-.8-.7.2-3.6 4.2-9.1.6-6.6-4.4 2.3-4.4 7.8-3.9 7.8.8v1.6l.8-.9c3-3.6 7.5-1.8 7 2.9l-.2 1.4.6-1c2.5-4 8.2-2.6 7.6 2l-.2 1.2.8-1c2.3-2.6 5.5-2.6 7 .2.3.5.4.4 1-1l.7-1.6-1 .2c-2.6.5-4.4-1-4.4-3.6 0-4.5 5-7.4 7.6-4.3l.9 1.1.7-1.5.6-1.5-1.8.1c-2.5.2-4-1.3-3.7-4l.1-1.7-.6 1c-2.4 3.7-7.5 2.5-7.4-1.8v-1.4l-.7.7c-2 2.5-5.5 2.6-6.7.3-1.3-2.5.1-6 2.8-7.2.8-.4.8-.4-1.2-1-2-.7-2-.7-1.8-.2 1.5 2.8-1.4 7-4.8 7-2.2 0-4-2.3-3.3-4.5.2-.7.1-.7-.6.2-2.8 3.2-7.2 2-7-2.2v-1.4l-1 1c-3 3.2-7.2 1.6-6.9-2.5l.2-1.7-1 1c-2.7 3.4-7.1 2.2-7-1.8v-1.7l-1 1c-1.9 2.3-6.6 2.2-6.6 0 0-1-.6-.6-1.4 1l-.8 1.7.8-.3c3-1.1 5.7 1.3 5 4.5-.2.8-.2.8.7-.2 2.8-3.5 7.5-2 7.1 2.4l-.1 1.7.5-1c2.7-4.3 8.9-2 7.4 2.9-1.5 5.2-8.3 5.5-8.3.4V477l-1.1 1c-3.1 3-7.7.9-6.8-3.2l.3-1-1 1c-2 2.4-4.3 2.7-6.2.7l-1.2-1.2-.6 1.6-.6 1.5 1.1-.3c3-1 5.6 2.5 4.1 5.9-1.6 3.8-6.9 4.5-7.8 1-.2-.8-.3-.7-1 1l-1 2 1.5-.2c2.8-.3 4.2 1 4.3 3.8 0 1.4 0 1.4.5.7 3-3.7 8.1-1.7 7.3 2.7l-.2 1.1 1-1.1c3.2-3.3 7.3-1.9 7 2.3l-.2 2 .6-1c2.3-3.8 7.5-2.8 7.5 1.4v1.7l1-1c3.4-3.7 8-1 6.6 3.7-.1.5 0 .4.6-.4 2.5-3.7 7.6-2.8 7.6 1.4v1.2l1-.8c3-2.5 6.5-1.2 6.5 2.5v1.7l.8-1 1.7-1.3zM762 494.5c-1-.2-2-1.4-2.4-2.6-.4-1-.3-1.7.2-3.2.1-.3-.2 0-.6.6-2.6 3.7-7.6 3.1-7.6-1V487l-1.2 1c-4 3.1-8.3-.8-5.8-5.3 2.3-4 7.8-3.5 7.8.7v1.6l.8-.9c3-3.1 7.7-1 6.9 3l-.2 1 .8-1c3.3-4.1 8.8-.7 6.8 4.2-.5 1-2.5 3.1-3.2 3.1l-1 .1H762zm2.8-3c1.1-1 1.5-2.9.7-3.6-1.4-1.5-4.6 1.8-3.7 3.8.5 1.1 1.9 1 3-.1zm-8-2.7c2-2 1.4-4.9-.8-4a3.6 3.6 0 0 0-2.2 3.2c0 2.2 1.4 2.5 3 .8zm-7.5-2.5c1.1-1.2 1.5-2.6.9-3.6-1.5-2.2-5.2 1-4.1 3.6.5 1 2.2 1 3.2 0zm39.1 6c-.9-1.1-1.1-2.1-.9-3.7l.2-1.2-.7 1c-2.7 3.9-8.5 1.9-7.4-2.5.2-1 .2-1-.8.2-3 3.2-7.3 1.7-7-2.5l.1-1.6-.6 1c-2.8 4.1-8.5 1.7-7.2-3 1.5-5.7 8.8-5.5 8.2.2v1.2l1.2-1.3c3-3 7.3-1.3 6.8 2.8l-.2 1.2.8-1c3-3.4 7.5-2 7.1 2.4l-.1 1.4 1.3-1.3c3.7-4 8.6-.3 6.2 4.6-1.4 2.8-5.5 4-7 2zm4.2-1.7c1-.8 1.7-2.6 1.4-3.6-.5-1.5-3.2-.8-4.1 1.1-1.2 2.4.7 4 2.7 2.5zm-8.4-2.4c2.4-1.3 2.6-4.7.4-4.7-2.1 0-3.8 3.3-2.4 4.6.6.7.9.7 2 0zm-7.2-3c1-.9 1.5-2.7 1.1-3.8-.4-1.2-2.2-1-3.3.2-2.3 2.7-.5 5.6 2.2 3.5zm-7.8-3c2.2-2.2 1.3-5.3-1.2-4-1.6.8-2.4 3-1.5 4.3.7 1 1.6.9 2.7-.2zm70.6 24.6c1.1-1.2 1.5-3 .7-3.7-1.2-1.2-3.8 1-3.8 3 0 2.2 1.3 2.4 3 .7zm41.1-1.5 1-.6-2-.6-1.9-.7.4 1c.1.5.2 1.5.1 2.2l-.1 1.2.8-1c.5-.5 1.2-1.2 1.7-1.5zm-105 1.6c1.7-1.3 2-4 .6-4.3-2-.5-4.2 2.2-3.5 4.1.4 1 1.8 1.1 3 .2zm27.5-.8c1.6-.9 2.3-3.1 1.4-4.4-1.7-2-5.2 2-3.8 4.1.6.9 1.1 1 2.4.3zm64.2-.6c1-1 1.1-1.3 1-2.5-.2-3-4-1.2-4 1.9 0 2 1.4 2.2 3 .6zm-127.3-.2c1-1 1.4-2.3 1-3.4-.8-2.2-4.1 0-4.1 2.7 0 1.8 1.6 2.2 3.1.7zM832 504c1.1-1.3 1.4-2.4.7-3.4-.8-1.3-2.5-.8-3.5 1.2-1.5 2.8.6 4.5 2.8 2.2zm-63.6-.1c1.7-1.7 1.5-4-.4-4-1.2 0-3 1.9-3 3 0 2.2 1.7 2.6 3.4 1zm-36.6-.7c1.6-.9 2.4-3.4 1.4-4.5-1.7-1.7-5 2.1-3.6 4.2.6 1 .9 1 2.2.3zm63.6 0c1.2-.6 2-2.1 1.9-3.5-.3-2.5-4.1-.7-4.1 2 0 1.9.6 2.3 2.2 1.5zm64.7-.5c1.1-1.1 1.3-3.3.3-3.8-1.3-.7-3.9 1.2-3.9 3 0 2 2 2.4 3.6.8zm13.7-.7c0-.4-.5-.3-.7.2-.1.3 0 .4.3.3.2 0 .4-.3.4-.5zm-49.7-.7c1.7-1.7 1.4-4-.6-4-1.8 0-3.3 3.2-2 4.7.5.7 1.5.4 2.6-.7zm47.2 0c0-.3-.3-.5-.7-.6-.5-.1-.6 0-.3.2.2.2.3.6.3 1 0 .7.6 0 .7-.7zm-110.8 0c2.4-2.5.7-5.8-2-3.7-1 .9-1.7 2.8-1.2 3.8s2.3 1 3.2 0zm104.7-1.6c.9-.3.5-.7-1.2-1.3-1.4-.5-1.4-.5-1.2.3.2.3.3 1.2.3 1.8v1.2l.7-1c.4-.4 1-1 1.4-1zm-13.1.5c1.2-1.2 1.5-2.5.9-3.5-1-1.6-3-.8-4 1.4-1 2.5 1.2 4 3 2.1zm-64 0c1.5-1 2-4 .6-4.4-.9-.2-2.5.7-3 1.8-1.3 2.5.2 4.2 2.3 2.7zm-35.5-1.6c2.2-2 1.2-5.3-1.3-4-1.1.5-2 2-2 3.2 0 1.9 1.6 2.3 3.3.8zm63.6 0c1-1.1 1.4-2.2 1-3.4-.6-1.5-2.7-.8-3.7 1.1-1.4 2.7.6 4.4 2.7 2.3zm42-2c.2 0-.4-.3-1.3-.6-2-.8-2-.9-1.7 1.2l.1 1.7 1.3-1.1c.7-.7 1.4-1.2 1.6-1.2zm-14.8 1.5c2.3-1.2 2.6-5 .4-5-2 0-3.9 3.8-2.3 5 1 .6.8.6 2 0zm-63-.8c1.5-1.5 1.7-3.9.3-4.3-1.3-.5-3.3 1.6-3.3 3.3 0 2 1.5 2.5 3 1zm68-1.9c.3-.4 1-1 1.5-1.2l1-.4-2-.6-2-.7.3.9c.3 1 .3 1.9 0 3-.2.9-.2 1 .1.4l1-1.4zm-40.8 1c2.2-1 2.6-4.9.5-4.9-1 0-2.7 1.7-2.8 2.7-.2 2.5.5 3.2 2.3 2.3zm-63.4-.2c2-1 2.5-4.7.5-4.7-1.2 0-2.7 1.6-3 3-.2 2 .7 2.6 2.5 1.7zM1401 494c3.5-9.3 4-16.3 1.5-21.6-1.2-2.6-5.1-5.5-10.3-7.7-4.3-1.8-11.3.1-17 4.7a36.7 36.7 0 0 0-7.2 8l2.6 1.5c8.5 4.5 17.2 9.6 24.7 14.3a28 28 0 0 0 4.8 2.7l.9-2zm-628.4.5c1.7-1.4 1.6-4-.2-4.3-.6 0-1 .2-1.8 1-2.2 2.6-.4 5.5 2 3.3zm64-.2c1.4-1.7 1.5-3.6.2-4-2-.4-4.3 2.2-3.5 4.2.4 1.2 2.2 1 3.3-.2zm-35.7-1.5c1.6-1.7 1.3-4-.5-4-1.1 0-2 .6-2.5 1.7-1.5 3 .8 4.8 3 2.3zm-63.8 0c2.3-2.4.6-5.6-1.8-3.6-1.1.8-1.8 2.8-1.2 3.8.5 1 2 .9 3-.2zm91.6-1.2c1.2-1.2 1.5-3 .5-3.8-1.1-1.2-3.6.8-3.6 3s1.3 2.5 3 .8zm5.5-3c.2 0 .4-.2.4-.3 0-.3-3-1.5-3-1.3v2l.1 1.8 1-1.1c.7-.7 1.3-1.2 1.5-1.2zm-13.5.5c2.3-2 1-5.6-1.4-3.9-1.6 1-2.1 3.3-1.2 4.4.7.6 1.5.5 2.6-.5zm-8-2.6c.8-.6 1.5-2.1 1.3-3.3-.2-2-3.3-1-4 1.4-.8 2 1 3.1 2.7 1.9zm-7.6-3.1c1-1 1.2-1.6 1-3-.2-2.3-3.7-.7-4 1.8-.4 2.3 1.3 3 3 1.2zm-63.4-.5c1.6-1.8 1.3-3.7-.6-3.7-1.4 0-2.9 1.5-2.9 3 0 2.2 2 2.6 3.5.7zm54.8-1.6c1.7-.8 2.5-3.4 1.4-4.4-1.7-1.7-4.9 2-3.5 4.1.6 1 .8 1 2 .3zm-35-2.2c1.5-1.5 1.5-3.8 0-4-2-.1-4 3.4-2.7 4.7.6.7 1.5.5 2.7-.7zm49.4.8c0-.2 0-.3-.2-.3l-.3.3c-.1.2 0 .3.1.3.2 0 .4-.1.4-.3zm-2.5-.5c.1-.2 0-.5-.2-.6-.3 0-.4 0-.3.5.2.7.3.7.5.1zm-5.5-2c.5-.2.2-.4-1.3-1-1.8-.6-1.9-.6-1.6 0 .2.3.3 1.2.3 2v1.3l1-1 1.6-1.2zm-13.4.5c1.4-1.5 1.2-4-.3-4-1.1 0-2 .4-2.5 1.5-1.5 2.9.7 4.8 2.8 2.5zm4.2-2c.5-.7 1.2-1.1 1.4-1.1.9 0 .4-.6-.9-1l-1.7-.5c-.4-.1-.4 0-.1 1 .3 1.1.2 1.7-.3 3.3-.1.4 0 .4.2-.1l1.4-1.7zm-40 .5c1.6-1.6 1.4-4.2-.3-4.2-1 0-2.6 1.5-2.9 2.7-.5 2.3 1.5 3.3 3.2 1.5zm613.7-1.7a31 31 0 0 1 17.8-12.4l2.3-.4-2.5-1.5a489.9 489.9 0 0 0-14.6-8.1 253.2 253.2 0 0 0-10.2-5.7 81.3 81.3 0 0 0-5.9-3.1 224.4 224.4 0 0 0-11.4-6.2l-4.2-2.2-5.4-2.9a2473.3 2473.3 0 0 0-83.6-41 288.2 288.2 0 0 0-16.6-7.5 1188.3 1188.3 0 0 0-48.1-20.6 935.8 935.8 0 0 1-18-7.2 926.5 926.5 0 0 0-18.4-7.2 1759.5 1759.5 0 0 0-104.4-36.3c-12.1-3.8-12.3-3.8-19.9-3.8a44 44 0 0 0-24.6 6.5 72.8 72.8 0 0 0-24.6 24.2c-1.6 2.3-1.5 2.5 1 3a483 483 0 0 1 22.8 4.6 656.6 656.6 0 0 1 22.9 5 1183.7 1183.7 0 0 1 58.7 14.2l19 5.2a4611.8 4611.8 0 0 0 27.5 8 317 317 0 0 1 19 5.7 776.7 776.7 0 0 1 34 11l7.7 2.6 11.7 4.2a691.5 691.5 0 0 1 36.4 13.6l12.2 4.8a1637 1637 0 0 1 71.8 31.8 605 605 0 0 1 27.4 13.6l18.9 9.7 1.3-1.6zm-586 .4c1.2-1 1.5-2.3 1-3.4-.6-1.3-2.7-.6-3.6 1.3-1.3 2.7.6 4.2 2.6 2.1zm-35.6-1.4c2-2 1.3-4.9-1-4a3.6 3.6 0 0 0-2 3.1c0 2.2 1.3 2.6 3 .9zm27.3-.7c2.4-1.2 2.6-5 .3-5-1.2 0-2.8 2-2.8 3.5 0 1.9.8 2.4 2.5 1.5zm-267.6-6.6a138 138 0 0 1 57.2-29.9c.7-.1-.6-.5-5.6-1.3a2002 2002 0 0 0-35-5.5 7242.3 7242.3 0 0 0-21.6 40.3l-.8 1.4 1.3-1.1 4.5-3.9zm272.8 2-1.5-.6v1.6l.2 1.5 1.4-1 1.3-1zm-12.2 1.3c1-1 1.2-2.4.7-3.7-.3-.9-2-.6-3 .4-2.6 2.7-.3 5.9 2.3 3.3zm5.2-3c.7-.4.9-.6.5-.7l-1.8-.6-1.3-.5.3.9c.2.4.2 1.4.1 2l-.2 1.3.7-.9 1.7-1.4zm-13.6.5c1.5-1 2-3.2 1.2-4-.8-.9-1.7-.7-3 .5-2.2 2.3-.7 5.3 1.8 3.5zm6.2-3.5c.7-.2.6-.3-.4-.6-2.6-.9-2.4-1-2.4 1.2v2l1-1.2c.7-.6 1.5-1.3 1.8-1.4zm-13.6.4c2.5-2.5.6-5.5-2.1-3.2-1.3 1-1.6 2.8-.8 3.7.8.9 1.6.7 2.9-.5zm5.5-3c.8 0 .3-.6-.8-1l-1.6-.6c-.3 0-.3.1-.1 1 .2.5.2 1.4.1 2l-.2.9 1.1-1.2c.6-.6 1.3-1.2 1.5-1.2zm-7.5-3.2c0-.1-.3 0-.5.2-.4.3-.3.4.1.2.3-.1.5-.3.4-.4zM650 437a6380.3 6380.3 0 0 1 31.5-59 310.4 310.4 0 0 0 9.2-17.1l10-18.6a982 982 0 0 1 12.8-23.4 70.7 70.7 0 0 1 26.8-24.5 48.1 48.1 0 0 1 50 4l19.6 11.4a17287 17287 0 0 0 82.5 47.5c1.6.7 7 3 7.3 3a31 31 0 0 0 3.1-6.3c0-.4-14.7-9-76.6-44.6L793.9 291a57.5 57.5 0 0 0-24-9.6 55.3 55.3 0 0 0-36.4 8.3l-2.1 1.3a80 80 0 0 0-19 17.6c-4.3 5.8-5 6.9-14.3 24.5a1941.2 1941.2 0 0 1-14.6 27.2 1620.4 1620.4 0 0 1-20.6 38.5 1750.1 1750.1 0 0 1-17.5 32.5l-6 11.3-1.7 3.2 1 .4c.7.2 2 .8 2.9 1.4a8 8 0 0 0 2 1c.2 0 3-5.1 6.3-11.4zm-7.6-4.2a2075.2 2075.2 0 0 1 17.7-33 2489.2 2489.2 0 0 1 20.8-39l7-13 14-26.1a81.2 81.2 0 0 1 16-22.4c6.9-6.9 20-15.9 23.1-15.9a59 59 0 0 1 19.9-4.7l2.2-.2-2.9-.9a2786 2786 0 0 1-36.4-11 61.5 61.5 0 0 0-40.6-.4 86.5 86.5 0 0 0-47.8 44 110.5 110.5 0 0 1-5 9.4l-3.9 7.2a509.6 509.6 0 0 0-9.3 17.3 5069.8 5069.8 0 0 0-25.2 47 3572.6 3572.6 0 0 1-20.2 37.4l-3.6 6.8 3.3-.4c13.7-2 22-1.3 47.2 4a87 87 0 0 1 17.1 6l6.6-12.1zm229.9 11.6c0-.2 0-.3-.3-.1-.6.2-.7.4-.2.4.1 0 .4-.1.5-.3zm-4.8-3.5V439l-.8 1c-.5.4-1.2.9-1.6 1-1 .3-.9.7.5 1.2 1.8.8 1.9.7 1.9-1.3zm4.6 1c1.5-.7 2.4-3 1.5-3.9-1.5-1.5-5.4 2.3-4 4 .4.6 1.3.6 2.5 0zm-12.4-3.4c0-.8 0-1.7.2-2.1.3-.5 0-.4-.7.4-.7.6-1.6 1.3-2 1.4-.8.2-.8.2.9 1l1.7.7-.1-1.4zm4.7.6c1.7-.9 2.6-3.6 1.3-4.3-1.9-1-5 2.9-3.5 4.4.6.5 1.1.5 2.2-.1zm6.4-3.2c1.7-.8 3.2-.5 4.4 1l1 1 .8-1.3.8-1.4-1.2.1c-3.1.5-5.3-2.4-3.8-5 .2-.4-.2-.2-.8.4-3 3-7.1 1.7-6.9-2l.1-1.6-.8.8c-3 2.8-6.9 1.5-6.6-2.2V424l-1 1c-3.2 2.8-7.5.7-6.5-3l.3-1.3-1.1 1.1c-3 2.9-7 1.5-6.8-2.2l.2-1.6-1 .9c-2.8 2.6-6.7 1.3-6.7-2.2v-1.5l-.9.8c-3.1 2.7-7.4.6-6.5-3l.4-1.3-1.2 1.1c-2.1 2-5.3 1.8-6.2-.1-.5-1.2-.5-1.2-1.5.4l-.8 1.4 1.4-.2c2.5-.2 4.2 1.6 3.7 4l-.2 1.2 1-.8c3.3-2.8 7.3-1 6.6 2.8l-.1 1.2 1-1c3.3-2.9 7.6-1 6.8 2.9l-.3 1 1.3-1c3-2.4 6.8-.8 6.4 2.7l-.1 1 .9-.7c3-2.6 6.9-1 6.5 2.6l-.1 1.4.7-.6c3-2.8 7.1-1.5 6.8 2.2v1.5l1-1c3.7-2.8 8.1.4 6.1 4.4-.2.4 0 .2.6-.5.6-.6 1.6-1.4 2.3-1.7zm-18.4-1V433l-.9.9c-.5.5-1.3 1-1.9 1.1l-1 .3 1.8.7 1.9.7.1-1.8zm5.2.6c2.2-2 1.6-4.6-.9-3.6-1.6.7-2.8 3.4-2 4.3.5.5 2 .1 3-.7zm-289.7-4 3.9-7.1a628 628 0 0 0 11.7-21.8 769 769 0 0 0 5.8-10.7c3-5.9 6.2-11.8 6.8-12.7.7-1 .7-1-5.6 3.3a676.3 676.3 0 0 1-33.3 21.6l-3.7 2.4-6.4 12a426 426 0 0 0-6.4 12l24.7 4c.9 0 1-.3 2.5-3zm277.2.4V430l-1 .9c-.4.4-1.2 1-1.7 1.2-.8.3-.8.3 1 1l1.7.7zm32.1 1.1c1.7-.8 2.4-3.1 1.4-4.1-.7-.7-1.6-.4-2.9 1-2 2.1-1 4.4 1.5 3.1zm-27.2-.3c1.4-1 2-3.4 1-4-1.8-1-5 2.9-3.6 4.3.3.4 1.8.2 2.6-.3zm-12.4-3.1c-.2-.6-.2-1.5 0-2l.2-.9-1.2 1.2c-.7.6-1.6 1.1-2 1.1-.5 0-.3.3.9.8 2.1 1 2.3 1 2-.2zm4.7.2c1.2-.6 2.1-2.5 1.7-3.5-.6-1.2-2-1-3.5.3-2.2 2.2-.9 4.6 1.8 3.2zm28.2-.4c2.2-2.2 1.3-4.8-1.2-3.4-1.5.8-2.6 3.3-1.8 4 .6.6 2.1.3 3-.6zM543 421.9l5.8-10.8 1.4-2.5-1.2.7a5024 5024 0 0 1-6.3 4l-6.1 3.8c-2.5 1.4-11.3 7-14.8 9.2-1.2.7-1.5 1-1.1 1.2a518 518 0 0 0 16.8 2.5c1 0 1.1-.2 5.5-8.1zm339.1 6 .8-1.5-1.5.1c-2.4.2-3.7-1.2-3.5-3.6l.2-1.7-1 .8c-3 2.8-6.8 1.5-6.6-2.3.2-1.6.1-1.7-.3-1.2-2.7 3.4-7.6 2.2-7.3-1.6l.1-1.7-.9.9c-2.8 2.6-6.8 1.2-6.6-2.4l.1-1.5-.8.7c-3.2 3-7.8 1-6.7-2.9l.3-1-1.3 1c-3.6 3.2-8 .4-6.2-3.9 2.1-5.2 9.6-4.6 8.2.7l-.3 1.2 1.2-1.1c3-2.6 7.1-1 6.6 2.5l-.1 1.2 1-.8c3-2.6 6.9-1.1 6.5 2.6l-.1 1.3 1.2-1c3-2.5 6.7-.8 6.3 2.9l-.2 1.4 1-1c3.3-2.8 7.2-1.5 6.9 2.3l-.2 1.5 1-1c1.2-1 3-1.4 4.2-1 .8.1 1.2.5 2.2 1.8.4.6.5.5 1.3-1l.8-1.6-1 .3c-2.3.6-4.4-1-4.4-3.3v-1.2l-1 .7c-3 2.1-6.6.6-6.3-2.7l.1-1.7-1 .9c-2.8 2.7-6.7 1.4-6.5-2.3l.1-1.6-.8.8c-4.7 4.3-9.5-1.3-5-5.8 3-3 7.4-1.5 6.8 2.3l-.1 1.1 1-.8c3-2.6 6.9-1 6.5 2.6l-.1 1.4.6-.6c3.2-2.9 7-1.8 7 2v1.1l1.3-.8c2.4-1.6 4.8-1 5.8 1.2l.4.8 1-1.6 1-1.7-1 .2c-2.8.6-4.5-.8-4.3-3.5v-1.6l-.7.8c-4.7 4.3-9.4-1.2-5-5.8 2.7-3 6.7-1.8 6.7 1.8 0 1.5 0 1.6.7 1 2-2 4.7-2 6.1-.2l1 1.1.5-1c.7-1.5.7-1.5-1-1.5a3.5 3.5 0 0 1-2.9-5.2c.2-.4-.1-.2-.8.5-3 3-7.1 1.7-6.9-2.1l.1-1.5-1 .9c-2.8 2.7-6.7 1.3-6.4-2.4v-1.7l-1 1c-3.1 2.8-7.5.8-6.5-3l.3-1.2-1 1c-2.9 2.9-7 1.7-7-1.9v-1.4l-1.1.8c-3.3 2.2-7 .3-6.3-3.1l.2-1-1.2 1c-3.3 2.6-7.3.5-6.3-3.2l.3-1.2-1.2 1c-2.1 2-5.2 1.9-6.3-.1-.2-.5-.5-1-.6-.9 0 0-.4.8-1 1.5l-.8 1.4 1.4-.2a3.5 3.5 0 0 1 4 4l-.2 1 1-.8c4.6-3.9 9.1 1.6 4.9 6-2.9 3-7 1.8-7-2v-1.3l-1 .8c-2 1.8-5.2 1.6-6-.5l-.5-1-.4.7c-1.4 2.2-1.4 2.3-.2 2.1 2.4-.5 4.2 1 4.2 3.5v1.4l.9-.8c3.2-2.7 7.8-.2 6.3 3.5l-.3 1 1.1-1c3.3-3 7.5-1.3 6.8 2.5l-.2 1 1-.9c4.6-3.9 9.2 1.7 4.9 6-3 3-7.2 1.7-6.8-2.2V400l-1.1 1c-3 2.8-7.4.5-6.3-3.3l.2-1-1.2 1c-3 2.8-7.3 1-6.5-2.7l.2-1-1 .9c-2.3 1.9-5 1.8-6.2-.3l-.7-1-1 1.6-.8 1.4 1-.2c2.4-.7 4.3.8 4.3 3.3 0 1.4 0 1.4.6.9 4.1-3.8 8.9.4 5.8 5-2.7 4.1-8.5 2.7-7.6-1.7l.2-1-1.2 1c-2 1.9-5.2 1.6-6-.5l-.5-1-.9 1.5c-1 1.8-1 1.8 0 1.5 2.8-.8 5.1 1.6 4.3 4.4l-.3 1 1.2-1c3-2.8 7.4-1 6.7 2.7l-.2.9 1-.8c3-2.6 7-1 6.5 2.7l-.1 1.3.7-.6c3.3-3 7.4-1.6 6.8 2.5l-.2 1.3 1.1-1c3.2-2.8 7.3-1.2 6.8 2.6l-.2 1.2 1-.9c2.9-2.5 6.9-1 6.6 2.4-.1 1.4-.1 1.4.5.8 3-2.8 7.1-1.4 6.8 2.2 0 1.5 0 1.6.6 1 2.4-2.2 5.4-2.1 6.4.1l.6 1 1-1.5zm-6.7-25.8c-1.5-.6-2.1-1.8-2-3.5l.1-1.4-.8.7c-3 2.8-6.9 1.5-6.6-2.2v-1.8l-1 1c-2.7 2.7-6.5 1.4-6.5-2.2v-1.4l-.8.7c-3.4 3.2-8.1.3-6.3-3.9 2.3-5 9.4-4.6 8.3.5l-.3 1 1-.9c3.3-2.7 7.3-1 6.7 2.8l-.3 1.3 1-.9c3-2.9 7.3-1.2 6.7 2.7l-.2 1 .7-.7c2-1.8 4.7-2 6.1-.3 2.7 3.2-2 9.2-5.8 7.5zm3.4-2.7c2.2-2 1.5-4.6-1-3.5-1.5.6-2.8 3.4-2 4.2.5.5 2 .2 3-.7zm-8-2.4c1.2-.7 2.1-2.6 1.7-3.6-1-2-4.2 0-4.2 2.4 0 1.8.7 2.1 2.5 1.2zm-6.8-3.7c1.5-1.5 1.7-3.3.4-3.7-1.5-.5-4 2.3-3.6 4 .3 1 2 1 3.2-.3zm-7.4-3c2.2-2.2.9-4.7-1.7-3.4-1.3.7-2.2 3.5-1.5 4.2.6.6 2.2.2 3.2-.8zM830 426.8a5 5 0 0 1 0-2.1l.4-1-1.4 1.2c-.8.8-1.7 1.3-2 1.4-.5 0 2.2 1.3 3 1.5v-1zm32.4.3c.8-.5 2-2.2 2-3.2 0-1.5-2.3-1.6-3.8 0-2.2 2.1-1 4.5 1.8 3.2zm-26.9-.9c2-2 1-4.4-1.4-3.3-1.6.7-2.7 3.2-1.9 4 .6.7 2.4.3 3.3-.7zm-13-3.4v-2l-.7.9a6 6 0 0 1-1.7 1.2l-1 .4 1.4.6c2 1 2 1 2-1.1zm60 1.4c1.7-1 2.5-3.2 1.5-4.2-1.1-1.1-3.8.6-4.2 2.6-.3 1.8 1 2.6 2.7 1.6zm-54.7-.8c1.7-1.8 1.6-3.9-.3-3.9-1.8 0-3.8 3.4-2.6 4.6.5.5 2 .2 2.9-.7zm27.7.1c2.3-2.1 1.5-4.8-1.2-3.5-1.6.7-2.8 3.3-2 4.1.6.5 2.4.2 3.2-.6zm-40.4-2.4c-.1-.5-.2-.6-.4-.3-.3.5-.1 1 .3 1 .2 0 .2-.3.1-.7zm32.8-.6c1.8-1.8 1.7-3.9-.2-3.8-1.4 0-2.9 1.6-2.9 3.3 0 1.8 1.6 2 3.1.5zm27.7.2c1.6-1.5 2-3.2.7-3.8-2-1-5 2.7-3.6 4.2.6.6 2 .4 3-.4zm-55.1-.6c1.4-1.4 1.4-3.5-.1-3.5-1.9 0-3.8 2.3-3.3 3.9.4 1 2.2.8 3.4-.4zm-7.8.2h-.6c-.3 0-.2.1.2.2.3 0 .5-.1.4-.2zm-5-2.3c-.2-.5-.3-1.4-.2-2l.2-1.1-.9.8a6 6 0 0 1-1.7 1.2c-.7.3 1.1 1.5 2.8 2l-.2-.9zm59.8.1c1.6-.9 2.4-3.2 1.4-4.2-.7-.7-1.6-.3-2.9 1-2 2.2-1 4.6 1.5 3.2zm-54.5-1c1.6-1.5 1.5-3.4-.1-3.6-2-.2-4.3 3.3-3 4.5.5.6 2 .2 3.1-.9zm27.4.4c2.3-2.1 1.7-4.7-.8-3.6-1.6.6-2.3 2-2.2 3.8 0 .9 2 .7 3-.2zm-40.2-3.7v-1.9L799 413c-.7.6-1.5 1-1.8 1-.3.1.2.5 1.2.9l1.8.8zm5.5 0c1.4-1.4 1.4-3 0-3.2-2.4-.3-4.6 2.7-3.1 4.1.8.9 1.7.6 3.1-.8zm27.5.5c1.6-1.7 1.5-3.5-.3-3.7-1 0-1.3.1-2.1 1-2.5 2.9-.3 5.3 2.4 2.7zm27.5.1c2.2-2.2 1.4-4.7-1.1-3.4-1.6.8-2.6 3.3-1.8 4.1.5.6 2 .2 3-.7zm27.6 0c1.8-1.7 1.6-3.7-.2-3.6-1.7.1-3.8 3.3-2.8 4.3.6.6 2.2.2 3-.7zm-71-1.8.9-1.6-1.2.3c-2.7.7-5-1.6-4.3-4.3l.4-1.3-1.3 1.2c-3 2.6-7.2 1-6.6-2.6l.2-1.1-1 .8c-3.1 2.6-7 1-6.5-2.8l.1-1.3-.8.8c-2.9 2.8-7 1.5-6.7-2 0-1.5 0-1.5-.6-1-3.8 3.6-8.6.2-6.2-4.4 2.2-4.4 8.3-3.8 8 .8l-.2 1.4.8-.8c3-2.8 7-1.5 6.7 2.2l-.2 1.7 1-1c2.9-2.6 6.6-1.3 6.6 2.4v1.4l.7-.7c3.3-3 7.8-.9 6.7 3.2l-.3 1 .8-.8c2.5-2.4 6.8-2 6.8.6 0 .8.5.4 1.5-1.3l1-1.7-1 .3a3.5 3.5 0 0 1-4.6-3.7l.2-1.2-1.2 1c-3 2.4-6.8.7-6.3-3l.1-1.2-1 1c-3 2.6-6.8 1.2-6.5-2.5l.1-1.7-1.2 1.1c-3 2.7-6.5 1.5-6.5-2.2v-1.7l-.8.7c-3 2.8-7.1 1.2-6.7-2.5.1-1.1.1-1.1-.5-.5-3.2 2.9-7.2 1.5-6.9-2.5l.2-1.2-1.2.9c-3.6 2.9-8-.3-6-4.3.2-.4-.1-.2-.6.4-2.4 2.8-5.8 3-7 .4l-.6-1-1 1.7c-.8 1.4-1 1.7-.4 1.4 2.5-1.3 5.5.9 5 3.9l-.1 1 .8-.8c3.2-3 7.2-1.3 6.6 2.7l-.1 1.3.8-.8c3.8-3.5 8.3-.6 6.4 4-2 4.7-8.6 4.4-8.2-.4l.2-1.6-1 1c-3 2.5-6.4 1.3-6.4-2v-1.8l-1.2 1c-2.2 1.7-5.3 1.4-6.2-.8l-.4-1-.8 1.5c-1 1.8-1.1 1.7.2 1.5 4.2-.4 5.5 4.5 2 7.6-.7.6-1.4 1-1.7 1-.8 0-.2.5 1.4 1l1.4.6V399c0-3 2.3-5.6 5-5.6 2.5 0 3.8 1.4 3.6 3.9l-.2 1.2.9-.8c3-2.8 6.5-1.7 6.5 2v1.8l.8-.7c3-3 7.1-1.3 6.7 2.7l-.2 1 .9-.7c3-2.8 6.9-1.6 6.6 2.2v1.7l1-.9c3.3-3 7.6-.8 6.5 3.2l-.3 1 1-.9c3.2-3 7.1-2 6.9 2l-.1 1.7 1.2-1c2.5-2.2 6.3-1.4 6.3 1.3 0 .6 0 .6 1.2-1.4zm-24.8-1.2c-.1-.5 0-1.4.1-2l.4-.9-1.3 1.2c-.7.7-1.5 1.2-1.8 1.2-.9 0 1.4 1.3 2.7 1.6l-.1-1zm60.5.4c1.1-1 1.8-2.6 1.4-3.5-.6-1-2.3-.8-3.5.5-2.1 2.5-.4 5 2 3zm28-.3c1-1.1 1.4-2 1.1-3-.3-1.3-2-1.1-3.3.3-2.3 2.6-.3 5.1 2.1 2.7zm-83-.5c2-2.2.9-4.5-1.4-3.3-1 .5-2 2.2-2 3 0 1.8 2 2 3.5.3zm27.9 0c.6-.7 1-1.4 1-2 0-2.7-3.8-1.4-4.6 1.4-.5 2 2 2.5 3.6.6zm-40.8-3.3v-1.5l-.9.7a6 6 0 0 1-1.6 1c-.6.2-.6.2.6.8 1.8.8 2 .7 2-1zm5.6.1c1.3-1.4 1.3-3.1 0-3.3-1.2 0-2.1.4-2.9 1.7-1.7 2.8.5 4.1 2.9 1.6zm27.4.4c2.2-2.2.8-4.8-1.6-3.2-1.1.7-2 2.6-1.5 3.5.5 1.2 1.8 1 3.1-.3zm27.9 0c2-2 1.1-4.3-1.3-3.3-1.6.7-2.8 3.3-2 4.2.7.6 2.2.1 3.3-1zm27.4.3c1.5-1.4 1.8-3.4.5-3.9-1.8-.5-4.3 2.3-3.6 4.2.3.8 2.1.6 3.1-.3zm-95.6-3.8v-1.8l-.8.8a6 6 0 0 1-1.6 1c-.8.3.9 1.5 2.2 1.7 0 0 .2-.8.2-1.7zm88 1c1.1-1 1.8-2.6 1.4-3.5-.6-1-2.3-.8-3.5.5-2.1 2.5-.4 5 2 3zm27.5.2c1.6-1 2.2-3.4 1.1-4-2-1-5.3 2.6-3.8 4.1.6.6 1.8.5 2.7-.1zm-110.3-.6c1.1-1 1.6-2.8 1-3.5-1.4-1.7-4.6 1.2-4 3.5.2 1 1.7 1 3 0zm27.9-.4c2.1-2.4 0-4.7-2.2-2.4-1.8 1.8-1.8 3.6 0 3.6 1 0 1.4-.3 2.2-1.2zm27 .7c1-.6 1.9-2.6 1.6-3.4-.3-1-2.1-.8-3.3.3-2.2 2.3-.8 4.9 1.8 3.1zm-67.6-3.7-.1-1.5-1.2.7c-.6.5-1.2.8-1.4.8-.2 0 .3.4 1.2.8l1.6.8-.1-1.6zm116 .6c1.4-1.4 1.7-2.5.8-3.4-1-1-1.8-.7-3.2.8-2.4 2.5-.3 5 2.3 2.6zm-110.6-.5c.5-.4 1-1.2 1.1-1.7.6-2.6-2.8-2.5-4.2 0-1.3 2.6 1 3.8 3.1 1.7zm27.7 0c.9-.8 1.1-1.2 1-2-.2-2-2.3-2-3.7 0-1.8 2.7.4 4.4 2.7 2zm27.6 0c1.4-1.5 1.3-3.4 0-3.5-1.2-.2-2.3.6-3 2-1.2 2.6 1 3.8 3 1.5zm27.2.7c.9-.7 1.7-2.5 1.5-3.3-.7-2.1-4.3 0-4.3 2.6 0 1.4 1.3 1.7 2.8.7zm-300.5-1.3 3.6-2.4a701 701 0 0 0 31.2-20.3l6-4 7-13a3481 3481 0 0 1 20.2-37.7c2.1-3.8 3.8-7.3 3.5-7-.2 0-2.3 1.8-4.6 4-4.4 4-4.7 4.1-5.4 3.3-.6-.7.9-2.2 9.4-9.6 3.4-2.9 4-3.6 5-5.5 1.7-3.4 4.4-8 6.7-11.3l2-3-2.3 2-4.4 4c-1.2 1.1-14.2 15.6-29 32.2a8136.8 8136.8 0 0 1-29 32.6c-5.3 5.6-11.8 15.3-11.3 16.8.3 1 .2 1.4-1.4 3.8l-2.4 4c-.5 1-1.5 2.9-2.3 4.1a88.9 88.9 0 0 0-4.5 8.2l2-1.2zm36-50.8c-.7-.7-.7-.6 4.8-6.5 7.6-8.2 10.6-11 11.2-10.8 1.2.4.6 1.6-2.4 4.5-1.6 1.5-5 5.2-7.7 8-4.9 5.3-5.3 5.6-6 4.8zm174.2 48.9c.4-.3 1-1 1.3-1.6 1.4-3-2.4-3.8-4-.8-1.2 2.6.3 4 2.7 2.4zm28-.4c1.6-1.5 1.5-3.4-.1-3.5-2.2-.2-4.3 2.7-3 4.1.8.8 1.9.6 3.2-.6zm26.7.7c2-1 2.8-4 1-4.2-2.2-.3-4.6 3.4-2.9 4.4.7.4.6.4 1.9-.2zm28 0c.9-.6 1.3-1.2 1.6-2.3.6-2-1.5-2.7-3.2-1-2.2 2.2-1 5 1.6 3.3zm48.2-3.3c2.2-2 1.5-4.5-1-3.5-1.5.6-2.8 3.4-2 4.2.6.5 2.1.2 3-.7zm-143.3.5c0-.4-.6-.5-.8-.2 0 .2 0 .3.3.3l.5-.1zm5.2-1c1.6-1.6 1.6-3.7-.1-3.7-1.4 0-3.2 1.8-3.2 3.3 0 1.8 1.6 2 3.3.3zm27.8.2c1.7-1.7 1.6-3.6-.2-3.8-1.7-.2-3.7 2.1-3.2 3.9.3 1.2 2.1 1.2 3.4-.1zm27.7-.2c1.1-1.1 1.4-2.6.7-3.3-1.5-1.5-5 1.6-4.1 3.7.5 1.1 2 1 3.4-.4zm27.2.6c1.8-1.5 2-4 .4-4-2 0-3.8 2.3-3.3 3.9.2.8 2 .8 2.9 0zm-15.8-1.9c1-1.7 1-1.8 0-1.5-2.6.5-4.5-1.4-4.2-4l.2-1.3-1.3 1c-3 2.7-7 1-6.5-2.8l.2-1.2-1 1c-3 2.4-6.5 1.2-6.5-2.2 0-1.6 0-1.6-.7-1-2.9 2.8-7 1.4-6.8-2.2l.1-1.5-1.2 1c-3 2.3-6.5.9-6.2-2.6v-1.6l-1 .8c-3.1 2.8-7 1.5-6.7-2.3l.1-1.5-.8.8c-2.9 2.7-6.7 1.4-6.7-2.3 0-1 0-1.1-.6-.7-2.5 2.2-6 1.8-6.7-.6l-.3-1-1 1.7-1 1.7 1.9-.2c2.5-.2 3.3.8 3.3 3.5 0 1.7 0 1.8.5 1.3 3-4 9.3-1 7 3.3-.2.4 0 .3.6-.4 2.9-3 7-2 7 1.7v1.7l.8-.7c3-2.9 7-1.5 6.6 2.2l-.1 1.8.8-.8c3.3-3 7.1-1.6 6.7 2.7l-.1 1.2 1-.9c3.1-3 7-1.8 6.8 2.1l-.2 1.8 1-1c2.8-2.6 6.6-1.4 6.6 2.1v1.5l.7-.6c2.4-2.2 6.7-1.5 6.7 1 0 .7.2.6 1-1zm-46.5-2c2.4-2.5 0-4.7-2.4-2.2-.7.8-1.1 1.4-1.1 2 0 2 1.7 2.2 3.5.3zm27.6.3c1.4-1.3 1.6-3.1.4-3.4-1.3-.3-2.4.2-3.3 1.4-1.8 2.7.6 4.3 3 2zm27.7.1c1-.9 1-1.3 1-2.3-.2-2.5-4-1.3-4.5 1.4-.5 2.3 1.6 2.8 3.5 1zm54.7.6c1.6-1 2.2-3.3 1-4-1.7-.9-5 3-3.6 4.3.4.4 1.9.2 2.6-.3zm6-2.8c1.6-.7 3.1-.4 4.1.8l.9 1 .4-1c.7-1.3.7-1.3-.6-1.3-2 0-3.1-1.5-3-3.6l.2-1.7-1 .9c-2.9 2.8-6.8 1.3-6.5-2.4v-1.7l-.8.9c-2.7 3-7.2 1.6-6.9-2l.1-1.8-.9 1c-2.8 2.6-6.6 1.3-6.6-2.4v-1.3l-1 .8c-3.3 2.7-7.5.5-6.4-3.4l.3-1-1 1c-3 2.9-7.5 1.3-6.9-2.4l.2-1-1 .7c-3.8 3.3-8.1 0-6-4.5 2.2-4.4 8-4.2 8 .4v1.5l1-.8c3.3-2.8 7.8-.4 6.4 3.4l-.4 1 1.3-1.2c3-2.8 7.6-1 6.6 2.8l-.2.9 1-.8c3.1-2.7 7.1-1 6.6 2.7l-.1 1.3.6-.7c3.4-3 7.4-1.5 6.9 2.5l-.2 1.3 1.1-1c3.2-2.7 7.1-1.3 6.8 2.5l-.2 1.4 1-1c1.8-1.5 4.3-1.6 5.6-.3.6.6.7.6 1.2-.2s.5-.8-.7-.8c-2 0-3.1-1.4-3-3.7.2-1 .1-1.6 0-1.3-2 3.5-7.6 2-7.3-1.9l.1-1.3-.8.7c-3 2.8-7 1.5-6.7-2.2l.1-1.7-1.2 1c-3.2 2.8-7.3.8-6.3-3l.3-1.3-1.3 1.1c-3.5 3.2-8 .5-6.2-3.8.4-1 .4-1-1 .5-3.3 3.3-8 1.6-6.9-2.6l.3-1.3-1.2 1.1c-2.9 2.6-6.5 1.4-6.5-2.2v-1.3l-1.2.9c-2 1.6-4.9 1.4-5.8-.6-.5-1-.7-.9-1.7.8l-.8 1.3.9-.2c3.2-.8 5.4 2 4 5-1.7 4-6.5 5.1-7.9 2l-.4-1-.8 1.5-.9 1.5h1.4c2.6-.3 4.4 1.8 3.8 4.2l-.4 1.1 1.3-1c3.1-2.7 7.1-1 6.6 2.6l-.2 1 .7-.6c3.2-2.9 7.5-1.1 6.8 2.8l-.2 1 1-.7c3.3-2.8 7.1-1.3 6.6 2.7l-.1 1.2 1-1c3.2-2.7 7.3-1.1 6.7 2.7l-.1 1.2 1-.8c3.1-2.7 7-1.2 6.6 2.5l-.1 1 .9-.7c3-2.5 6.9-1 6.6 2.6-.1 1.4-.1 1.4.5.8l1.9-1.1zm49.8-3.4c1.2-2.2 2-4 2-4.2l-27-11a4694.9 4694.9 0 0 1-39.7-15.9 3493.2 3493.2 0 0 0-73.6-29.4 800.8 800.8 0 0 0-32.2-12.7l-7.6-3a822 822 0 0 1-9.8-3.8c-9.7-3.9-14.6-5-23.3-5.6-3.8-.2-3.3-.4-8.8 4.3a63.7 63.7 0 0 0-13 16c-2 3.2-3.2 2.6 9 5.2a1716.3 1716.3 0 0 1 60.5 13.9c.4.1 1-.5 2.1-2.5l3.7-5.4a71 71 0 0 0 3.8-5.7c2.2-4-1.1-4.8 30.6 8a16831.8 16831.8 0 0 0 83.3 33.7c8.7 3.5 9.1 3.8 7.7 5.1-.4.4-.7.8-.7 1l-.4.8c-.5.4-2.2 3.3-2 3.4l4 1.4a407.5 407.5 0 0 1 14 5l6.7 2.5c9.5 3.7 8.1 3.8 10.7-1.1zm-63.4 3.4c2-1 2.4-4.3.4-4.3-1.6 0-3 1.6-3 3.4 0 1.5.9 1.8 2.6.9zm-110.3-.8c1.9-1.7 2-3.9.2-3.9-1.4 0-3.2 1.8-3.2 3.3 0 1.8 1.4 2 3 .6zm28-.2c1-1.2 1.3-2.6.7-3.3-1.5-1.4-4.6 1.4-4 3.6.3 1.3 2 1.2 3.3-.3zm27.9 0c1.4-1.6 1.3-3.1-.2-3.3-1.4-.1-2.6.7-3.2 2-1 2.6 1.5 3.5 3.4 1.3zm74.6-1.9c1.7-.9 2.4-4 1-4.4-1.2-.5-3.6 1.6-3.6 3.2 0 1.7.9 2 2.6 1.2zm-138.3-.5c1.4-.8 2.2-2.6 1.7-3.7-1-2-4.5.3-4.5 2.9 0 1.4 1.2 1.8 2.8.8zm28.5-.8c2.4-2.6 0-4.7-2.4-2.3-.7.8-1.1 1.4-1.1 2 0 2 1.7 2.2 3.5.3zm27.4.4c2.2-2.2.8-4.8-1.6-3.2-1.5 1-2.2 3-1.4 3.9.7.7 1.9.4 3-.7zm27.6.1c1.3-1.3 1.6-3.2.5-3.7-1.5-.5-4.2 2.3-3.8 4 .3 1 2 1 3.3-.3zm27.8 0c2.1-2 1.2-4.5-1.3-3.4-1.6.8-2.7 3.3-2 4.1.7.6 2.4.2 3.3-.7zm-50-2.5c1.8-1 4-.3 5 1.3l.5 1 .9-1.5.8-1.5-1.2.2c-2.5.4-4.5-1.6-4-4.2l.1-1.3-.9.9c-2.8 2.7-6.6 1.7-6.6-1.8V376l-.9.7c-4.1 3.5-8.6-.4-5.7-5 2.4-3.9 8-3.2 7.7 1l-.2 1.6.8-.8c3-2.8 7-1.5 6.7 2.2l-.1 1.8.8-.8c2.4-2.2 5.4-2 6.5.5l.4.9 1-1.7 1-1.7-1 .3c-2 .7-4.4-1-4.4-3.1 0-5 6-7.7 8.3-4l.5 1 1-1.6.8-1.6-1 .3c-2.4.8-4.7-1.3-4.4-4l.2-1.2-1 1c-2.9 2.5-6.8 1-6.6-2.4.1-1.4.1-1.4-.5-.8-4 3.7-8.8 0-6-4.6 2.4-4.3 8-3.6 7.7 1l-.1 1.3.8-.7c3-2.8 7-1.5 6.7 2.2l-.1 1.8 1-1c2-2 5-2 6.1.2l.6 1.2.8-1.5.9-1.5-1.8-.2c-2.5 0-3.5-1-3.2-3.5v-1.7l-1.1 1c-3 2.8-7.1 1-6.6-2.7l.2-1.3-.9.8c-2.8 2.7-7 1.4-6.7-2.1l.1-1.4-.8.7c-3.1 2.6-7 1.2-6.7-2.4l.1-1.5-1 .9c-2.8 2.4-6.5 1.2-6.5-2.2 0-1.3 0-1.4-.5-1-1.8 1.6-3.8 2-5.5 1-2.5-1.6-1.4-6.4 1.8-8 .8-.3 1-.5.7-.6l-1.8-.7-1.2-.6v1.9c0 1.5-.2 2-1 3-2.9 3.6-7.5 3-7.5-1 0-1.4 0-1.5-.6-1-2.4 2-5.6 1.9-6.6-.4l-.4-1-.8 1.6-.9 1.5 1.6-.1c2.3-.2 3.7 1 3.7 3.4 0 1.2 0 1.5.3 1.2 2.8-3.6 8.3-1.2 7 3l-.4 1.1.7-.9c2.8-3.3 7.6-2 7.2 2l-.1 1.3.8-.8c3.3-3 7.4-1 6.6 3.1l-.2 1 .9-.8c4.7-4.4 9.5 1 5 5.7-2.7 3-7.1 1.6-6.8-2.2l.2-1.5-1 1c-3 2.5-6.8 1-6.6-2.5l.1-1.3-1.1 1c-3 2.4-6.6.9-6.3-2.7v-1.5l-1 .9c-2.8 2.5-6.4 1.3-6.4-2.2 0-1.4 0-1.4-.6-1-2.4 2.1-5.4 2-6.5-.3l-.5-1-.9 1.4c-1 1.8-1 1.7.3 1.5 2.9-.3 4.7 2.2 3.7 4.9-.3.8-.2.7.8-.3 2.8-2.8 7-1.4 6.8 2.3l-.1 1.3.8-.7c3.7-3.4 8.2-.5 6.3 4-2 4.8-8.7 4.4-8.2-.4.2-1.2.2-1.2-.5-.6-3.2 3-7.2 1.5-6.8-2.5v-1.2l-1.1 1c-2.2 1.7-5 1.4-6-.7l-.5-1-1 1.8c-.8 1.3-1 1.6-.4 1.3 2.2-1.2 5 .5 5 3.2v1.6l1-.9c3-2.3 6.9-.4 6.3 3l-.2 1.2 1-.8c3.1-3 7.1-1.3 6.6 2.7l-.2 1.3.9-.8c3.2-3 7.2-1.6 6.7 2.5l-.1 1.1.8-.7c3.7-3.5 8.6-.2 6.3 4.2s-8.5 4-8.2-.4l.1-1.4-1 .9c-2.8 2.5-6.7.9-6.4-2.6l.1-1.6-1 1c-2.8 2.4-6.5 1.2-6.5-2.2 0-1.3 0-1.4-.6-1-3.3 3-7.1 1.5-6.7-2.5v-1.3l-1.1 1c-2.2 1.7-5.4 1.5-6.1-.4-.4-1.1-2.5.6-2.5 2h2c2.5 0 3.6 1.3 3.3 3.7 0 1 0 1.2.3.9 2.7-3.5 7.8-1.7 7 2.6 0 1 0 1 .4.5 2.5-3.6 7.6-1.7 7 2.5l-.1 1.3.7-.8c2.7-3.2 7-2.2 7 1.6 0 1 .2 1.8.3 1.5 2-3.4 7.6-1.8 7.2 2v1.3l.7-.7c3-2.8 7-1.5 6.7 2.2l-.1 1.7 1.2-1c3.3-2.8 7.4-.6 6.3 3.3l-.3 1 1-.9a10 10 0 0 1 1.8-1.3zm1.6-12.8c-1.2-.6-1.9-1.6-1.9-3.2V367l-1.2 1c-2.8 2.3-6.2 1-6.2-2.5V364l-.8.7c-2.9 2.8-7 1.2-6.6-2.5.1-1.1.1-1.1-.5-.5-4 3.6-8.7.3-6.3-4.5 2.1-4.2 7.8-3.8 7.8.5v1.7l.8-.7c3.1-2.9 7-1.5 6.7 2.2l-.2 1.8 1-1c1-.8 2.8-1.6 3.6-1.4l1.2.3c1 .2 1.8 1.6 1.8 3.4v1.3l.7-.6c2.4-2.2 5.5-1.8 6.6.7 1.4 3.4-3.1 8-6.5 6.6zm3.6-3.1c1.4-1.5 1.4-3.1 0-3.3-1.1-.1-2 .4-2.8 1.6-1.7 2.9.5 4.1 2.8 1.7zm-7.4-2.8c1.6-1.7 1.4-3.8-.4-3.8-1.5 0-3.3 2.4-2.9 4 .4 1.3 2 1.1 3.3-.2zm-7.4-3.1c1.4-1.4 1.4-3.3 0-3.5-1.6-.1-3.3 1.6-3.3 3.3 0 1.7 1.6 1.9 3.3.2zm-7.9-2.5c2-1.2 2-4.2.2-4.2-2.2 0-4.2 3.2-2.8 4.6.5.5 1.3.4 2.6-.4zm-23.3 24c1.8-1.1 2-4.2.3-4.2-2.3 0-4.4 3.1-3 4.6.6.5 1.4.4 2.7-.4zm28.1-.6c1.4-1.4 1.4-3.1 0-3.3-1.1 0-2 .4-2.8 1.7-1.7 2.8.5 4 2.8 1.6zm27.5.4c2.2-2.2.8-4.9-1.7-3.2-1.1.7-1.9 2.6-1.4 3.5.5 1.2 1.8 1 3-.3zm27.6.1c1.7-1.7 1.6-3.8-.3-3.8-1.7 0-3.8 3.5-2.7 4.6.6.5 2 .1 3-.8zm27.7.2c1.5-1.4 1.8-3.4.5-3.9-1.9-.5-4.4 2.3-3.7 4.2.3.8 2.2.6 3.2-.3zm-7.6-3c1.1-1.2 1.6-2.7 1-3.4-.7-.9-2-.6-3.1.6-2.3 2.6-.3 5.2 2.1 2.7zm-110.2-.7c1.6-1.8 1.4-3.5-.5-3.5-2 0-4 3.3-2.6 4.4.8.6 2 .2 3-1zm27.4.4c1.7-1.7 1.6-3.7 0-3.9-2.1-.2-4.4 3-3.1 4.4.7.7 2.1.4 3.1-.5zm27.8-.3c2.2-2.4.1-4.7-2.2-2.4-1.7 1.8-1.7 3.6.1 3.6.9 0 1.3-.3 2.1-1.2zm27.5.2c1.6-1.6 1.6-3.5 0-3.5-1.4 0-2.3.7-3 2-1 2.5 1 3.5 3 1.5zm46.8-2c1.7-.7 2.7-3.2 1.7-4.2-.7-.7-1.6-.4-3 1-1.9 2-1 4.3 1.3 3.3zm-138-.5c2.2-1.4 2.6-4.5.5-4.5-1.3 0-3 1.9-3 3.2 0 2 .8 2.3 2.5 1.3zm27.8 0c2.2-1.4 2.6-4 .6-4.1-2.1-.3-4.3 2.8-2.9 4.2.7.7 1 .6 2.3-.1zm28.5-.8c1.1-1.3 1.4-2.9.5-3.2-2.2-.9-5.2 2.3-3.7 4 .7.9 1.9.6 3.2-.8zm27.5.3c2.1-2.1.8-4.8-1.6-3.2-1.2.7-2 2.6-1.5 3.5.5 1.2 1.7 1 3-.3zm27.4.3c2.3-2 1.6-4.6-.9-3.6-2.2 1-3 4.4-1 4.4.7 0 1.4-.3 2-.8zm64.2.3-20.6-12-20.5-11.8-1.5 3a14 14 0 0 0-1.4 3.3 1182.4 1182.4 0 0 0 34.3 13.9 40.5 40.5 0 0 1 4.6 1.9l2.7 1c1.8.8 2.7 1 2.4.7zm-99-3.9c1.5-1.4 1.5-3 0-3.2-2.3-.3-4.5 2.6-3 4 .8 1 1.7.7 3-.8zm27.3.7c1.1-1 1.7-2.3 1.3-3.3-.4-1-2-1-3.1.3-2.5 2.4-.8 5.2 1.8 3zm27.4.3c2.3-1.7 2.3-4.7 0-4.1-1.8.4-3.5 3.4-2.5 4.4.4.4 1.8.2 2.5-.3zm-110.2-.7c1.9-1.7 1.2-4.5-.9-3.7-1.5.5-3 3.5-2.1 4.4.5.5 2 .1 3-.7zm27.8 0c1-.9 1.6-2.7 1-3.4-1.4-1.7-5 1.2-4.4 3.5.3 1.1 2 1.1 3.4 0zm88.1-2 1-.6-1-.4c-2-1.1-2.2-1-2.2.8s0 1.8.7 1.2c.3-.3 1-.8 1.5-1zm-12.7-.7c1.4-1.3 1.7-2.5.8-3.4-1.3-1.3-3.9.6-3.9 3 0 1.8 1.3 2 3 .4zm-110.8-.2c1-.8 1.6-2.3 1.3-3.1-.5-2-4.3.2-4.3 2.5 0 1.6 1.5 2 3 .6zm28-.5c1.4-1.5 1.4-3.2 0-3.3-1.2-.2-2.1.4-2.9 1.6-1.7 2.9.5 4.2 2.9 1.7zm27.8.3c1.7-1.7 1.4-3.7-.6-3.7-1 0-2.7 1.5-3 2.7-.5 2.3 1.7 2.9 3.6 1zm27.6 0c2.5-2.9-.2-5-2.7-2.2-.8.8-1.1 2.6-.6 3.1.6.6 2.3.2 3.3-1zm32.7-2.1 1-.5-1.6-.6-1.6-.7v1.7c0 1.7 0 1.7.7 1.1.4-.3 1-.8 1.5-1zm-123.6-.5c1-.7 1.8-2.6 1.3-3.5-.8-1.8-4.2.2-4.2 2.5 0 1.8 1 2.2 2.9 1zm26.8.4c2.8-1.5 3-5.5.2-4.5-1.7.6-3 3.5-2 4.6.5.4.8.4 1.8-.1zm56.6-.7c1.6-1.5 1.5-3.4 0-3.6-1.4-.1-2.5.6-3.2 2-1.3 2.7 1 3.8 3.2 1.6zm27.6 0c1.9-1.9 1-4.3-1.2-3.3-1.6.6-3 3.4-2 4.2.5.6 2.1.2 3.2-.9zm5.5-2.3c.8-.3.7-.3-.8-1-2-.9-1.8-.9-1.6.4.1.5 0 1.4-.2 2l-.3 1 1-1.1a7 7 0 0 1 1.9-1.3zm-425.4-5.3 19-11.4 10.6-5.7 7.6-4-9.3-4.7a329.7 329.7 0 0 1-39.3-22.6 507.2 507.2 0 0 1-25.3-18.3 360 360 0 0 1-62-61.8c-1.2-1.5-9.8 12.3-10.8 17.4-1.4 7.5-.6 9.9 7 20.6 25.1 36 54 66.9 87.4 93.7l4.4 3.6 2.6-1.7c1.4-1 5-3.2 8-5zm329.2 4.6c1-.8 1.6-2.3 1.3-3-.5-2.2-4.3 0-4.3 2.4 0 1.6 1.5 2 3 .6zm55.1.4c1.8-1.5 2-4 .4-4-2 0-3.7 2.1-3.3 3.8.2 1 1.9 1 3 .2zm28.3-.6c2.2-2.6-.1-4.8-2.5-2.4-1 1-1.4 2.7-.8 3.3.6.7 2.3.2 3.3-1zm5.5-2.2c.6-.2.5-.3-.7-.9-1.8-.7-2-.7-1.8.2.1.4 0 1.2-.1 1.8l-.3 1 1-1a8 8 0 0 1 1.9-1.1zm-283.9-28L627 307l-3.2-3a666.8 666.8 0 0 0-28.6-25.2c-1.8-1.7-6.6-5.6-13.7-11.2l-8-6.3a972 972 0 0 0-26.3-19.8 956.2 956.2 0 0 0-64.2-41.4l-5-3a425.3 425.3 0 0 0-20.7-11.4 455.2 455.2 0 0 0-22.1-11.5A1615.1 1615.1 0 0 1 407 161c-1-.3-2.3-.9-2.9-1.2-.5-.4-3.1-1.5-5.7-2.6l-10.7-4.5a888.7 888.7 0 0 0-179-55.7l-6.9-1.4a968.7 968.7 0 0 0-80.6-13l-1.1.1 1.2.3a1177.4 1177.4 0 0 0 20 4.3 2789.2 2789.2 0 0 0 20.5 5.6 1180.8 1180.8 0 0 0 12.2 3.7l6.5 2.2a389 389 0 0 1 47.4 19.3 332.7 332.7 0 0 1 37.5 20.2 895.8 895.8 0 0 1 21.2 14c1.5 1 4.6 3.2 6.8 5l5.3 3.9 3.5 2.6 4.3 3.5a398.4 398.4 0 0 1 66.5 68 412.8 412.8 0 0 0 54.9 55l4.8 3.7a495.7 495.7 0 0 0 37.7 25.9A408.1 408.1 0 0 0 576 364.2c.2 0 11.7-12.9 25.6-28.6zm187.1 27.8c2-1.2 2.5-4.5.7-4.5-2.4 0-4.7 3.8-3 4.8.9.5 1.1.4 2.3-.3zm56-.4c1.4-1.5 1.5-3.5 0-3.7-1.1-.1-2 .4-2.8 1.7-1.7 2.7.5 4.2 2.8 2zm27.6 0c1.4-1.3 1.3-3.5 0-3.7-1.2-.1-2.4.7-3 2.1-1.2 2.5 1 3.7 3 1.7zm5.5-2.5c.8 0 .1-.5-1.3-1.1l-1.6-.7.3.8c.2.5.3 1.4.2 2l-.2 1 1.1-1a5 5 0 0 1 1.5-1zm-14 .2c2.2-1 3-4.3 1-4.3-2.2 0-4.2 3-2.9 4.3.7.6.6.6 2 0zm-82-.7c1.9-1.6 1.8-4 0-4-2.1 0-4 3.2-2.8 4.5.5.5 2 .2 2.9-.5zm55.6-.3c2.2-2.4.3-4.6-2.1-2.5-1 .8-1.7 2.6-1.2 3.3.5.8 2.3.4 3.3-.8zm32.8-2 .9-.5-1.7-.7-1.6-.7.2 1c0 .6 0 1.5-.2 2l-.3 1 .9-.9c.5-.5 1.3-1 1.8-1.3zm-68.2-1c1.5-1.4 1.4-3.3 0-3.5-1.5-.1-3.3 1.7-3.3 3.3 0 1.8 1.7 1.9 3.3.2zm27.8.4c1.6-1.7 1.6-3.7-.1-3.9-2.1-.2-4.4 3-3 4.4.6.7 2 .4 3-.5zm27.7-.2c.9-1 1-1.3 1-2.2-.2-2-2.3-2-3.7 0-1.8 2.8.3 4.5 2.7 2.2zm5.2-2.4.8-.4-1-.4c-2.2-1-2.2-1-2 .8v1.6l.7-.6a5 5 0 0 1 1.5-1zm-68.9 0c2.2-1.4 2.6-4.5.6-4.5-1.3 0-3 1.9-3 3.2 0 2 .7 2.3 2.4 1.3zm28.5-.9c.9-.8 1-1.3 1-2.1-.2-2.3-3.8-1-4.3 1.5-.4 2.4 1.4 2.7 3.3.6zm27.9 0c1.5-1.6 1.4-3.1-.4-3.2-2.1-.2-4.2 2.7-2.9 4 .8 1 2 .7 3.3-.8zm-63.2-2.6c1.7-1.5 1.8-3.9.1-3.9-1.9 0-4 3.4-2.9 4.6.4.4 2 0 2.8-.7zm27.5 0c1.9-1.7 2-3.9.2-3.9-1.5 0-3.2 1.8-3.2 3.3 0 1.8 1.3 2 3 .5zm28-.2c1-1.2 1.3-2.6.6-3.3-1.4-1.4-4.5 1.4-4 3.6.4 1.3 2.1 1.1 3.4-.3zm35.7.8-24.1-14a14484.8 14484.8 0 0 1-72.7-41.8 43.4 43.4 0 0 0-32.4-2.4c12.2 7.1 40.5 23.3 40.8 23.3a993.3 993.3 0 0 1 35 13.8l1.6.6 1.2.5 4.9 1.9a173.2 173.2 0 0 1 11.6 4.7 257.2 257.2 0 0 1 13.3 5.2 208 208 0 0 1 11.6 4.6 354.6 354.6 0 0 1 9.2 3.6zm-22-.5c0-.1-.3-.2-.6 0-.2 0-.2.1.2.1s.5 0 .4-.1zm-8.2-2.7.7-.4-1-.5c-2.6-1.1-2.4-1.2-2.4 1v2l1-.8c.5-.5 1.2-1.1 1.7-1.3zm5.6 2c0-.2 0-.4-.3-.5-.3-.1-.4 0-.3.3.2.5.3.5.6.1zm-47-2c2.2-1.4 2.6-4.5.6-4.5-1.3 0-3 1.9-3 3.3 0 1.8.7 2.2 2.4 1.2zm28.5-.8c1.4-1.5 1.4-3.2 0-3.3-1.1-.2-2 .4-2.8 1.6-1.7 2.9.5 4.2 2.8 1.7zm5.7-2.3c.7-.2-1.9-1.7-2.9-1.7v3.7l1-.9c.6-.5 1.5-1 2-1.1zm-14.4.4c1.8-.8 3-3.3 2-4.3-1.2-1.2-4 .8-4 2.9 0 1.7.4 2 2 1.4zm-26.6-.8c1.8-1.6 1.7-3.9-.2-3.9-2 0-4 3.2-2.7 4.5.5.5 2 .2 2.9-.6zm33.1-2.6c.8-.4.8-.4-.6-1-1.8-.8-1.7-.8-1.7 1.1v1.8l.8-.8c.4-.4 1.1-.9 1.5-1zm-41.2.2c2.6-1.4 2.6-5.1 0-4.5-1.3.3-2.6 1.8-2.6 3.1 0 1.8.9 2.2 2.6 1.4zm28.5-.8c1.7-1.8 1.5-3.6-.3-3.6-2.2 0-4.3 3.6-2.7 4.5.8.5 2 .1 3-1zm5.1-2.2 1.2-.6-1.7-.6-1.7-.7.2 1.3c0 .8 0 1.7-.3 2.2-.3.6-.3.6.4-.2a7 7 0 0 1 2-1.4zm-13.2 0c1.3-.9 2.2-2.8 1.7-3.8-.9-2-4.5.1-4.5 2.6 0 1.7 1 2.2 2.8 1.1zm5.9-3.1c.9-.3.7-.6-.8-1.2l-1.4-.5v3.3l.8-.7 1.4-1zm-13.1-.4c1.8-1.6 1.9-4 .2-4-2 0-4.1 3.5-3 4.7.4.3 2.1-.1 2.8-.7zm-7.8-2.7c2.2-1.3 2.4-4.4.3-4.4-1.1 0-2.8 2-2.8 3.2 0 1.9.7 2.3 2.5 1.2zm6.1-3.2c.8 0 .2-.5-1-1l-1.4-.5v3.4l1-1c.6-.4 1.2-.9 1.4-.9zm-6.9-3.2c.1-.1 0-.3-.1-.3-.2 0-.4.2-.5.3-.1.2 0 .4.1.4.2 0 .4-.2.5-.4zM775 310.8a1067 1067 0 0 0-28.7-16.4c-.7 0-2.5.8-2.5 1a314.7 314.7 0 0 1 15.5 9c1.4.8 4.6 2.3 7.2 3.2a380.4 380.4 0 0 1 8.5 3.2zm-135.4-16.1 5-4a83 83 0 0 0 6.4-5.9 79.8 79.8 0 0 1 31.7-20.5l4.1-1.4-9.2-6a1940.6 1940.6 0 0 0-33.7-21.5 174.2 174.2 0 0 0-9.2-5.6 1004.3 1004.3 0 0 1-18-10.4 142 142 0 0 1-7.2-4 67.2 67.2 0 0 1-6.4-3.6l-2.8-1.4a405.3 405.3 0 0 0-15.6-8.4 2201.7 2201.7 0 0 0-39.5-19.5 1063 1063 0 0 0-92.5-38.1 987 987 0 0 0-65-21 744.8 744.8 0 0 0-39.8-10.6 1307 1307 0 0 1-19-4.6 167.5 167.5 0 0 1-10-2.3l-3.8-.8a1389.5 1389.5 0 0 0-74.2-13.7l-11.2-1.6a349.6 349.6 0 0 0-16.8-2.3 363.2 363.2 0 0 0-18.6-2.2 245.8 245.8 0 0 0-13.6-1.5 972.3 972.3 0 0 0-34.7-3c-14-1.1-41-2.4-36.8-1.8l7.7 1c7.3.8 38 5.1 46 6.4a873.5 873.5 0 0 1 52.7 10c4.8 1 8.9 1.9 9.1 1.8a434 434 0 0 1 27.2 6.6 726.2 726.2 0 0 1 31 8.4c12.2 3.4 15.5 4.4 35.4 11a775.2 775.2 0 0 1 80 30.6 108 108 0 0 1 10.3 4.6l4.6 2a563.9 563.9 0 0 1 31.2 15.3 916.4 916.4 0 0 1 54.4 30.5 321 321 0 0 1 19 12 1470.8 1470.8 0 0 1 38 26.1 896 896 0 0 1 69.6 57.3l3 2.9 4.2-4.2c2.3-2.3 5.4-5.3 7-6.6zm110.9 7c0-.2-5.1-3.2-8-4.7l-1.3-.7-1.2.7c-1.2.8-1.3.7 1.7 2.3 2 1 8.8 2.8 8.8 2.3zm-391.1-25.5c3.4-4 3.3-4.7-1.8-12.2A422.5 422.5 0 0 0 233 142.5a294.7 294.7 0 0 0-27-15.7l-.5 1.6c-.6 1.7-.5 1.7 1.3 2.6a540.3 540.3 0 0 1 35 23 475 475 0 0 1 69.5 62.7 454 454 0 0 1 45 58.8c1.6 2.7 1.5 2.7 3 .7zM356 249c1-4.2 5-11.2 9.3-15.7l1.9-2-1.3-1.6-3.3-4a410 410 0 0 0-70-66.6c-3.7-2.8-6.3-4.6-14-9.7-13.5-9-14.2-9.5-27.7-17.2a589.3 589.3 0 0 0-38.8-19.1l-13.2-5.5a445.5 445.5 0 0 0-74.7-21.9 280.2 280.2 0 0 0-20-3.7c-7.7-1.3-12.8-2-13-1.8a3308.8 3308.8 0 0 1 11.3 3 506.5 506.5 0 0 1 114.2 47.2 278.3 278.3 0 0 1 20.5 12.5l6.6 4.4 7.6 5.3a530.7 530.7 0 0 1 18.8 14 441.2 441.2 0 0 1 83.3 88.1l1.8 2.6.2-3.4c0-1.9.3-4 .5-5zM203.3 128c1-2.6.9-2.7-10-8.2a448.8 448.8 0 0 0-62.8-26.1c-6.2-2-6.9-2-1.3 0a197.6 197.6 0 0 1 12.9 5c5.7 2.3 7.6 3.1 15 6.4a929.4 929.4 0 0 1 37 18.5l6 3.5c3 1.6 3 1.6 3.2 1zm-79.8-36.6a2 2 0 0 0-.8-.3c-.2 0 0 .1.2.3.2.2.6.3.8.3.2 0 0-.1-.2-.3zM79 80.7c1.3-.8 1.3-.8-2.2-1.7-2.5-.6-2.4-.8-1.4 1.7l.9 2.2.8-.8 2-1.4zm26.7-2.2h-1.5l.8.1c.8 0 1 0 .7-.1z" style="fill:#000" transform="translate(-72 -75.8)"/></svg>