<?xml version="1.0" encoding="UTF-8" standalone="no"?>
<!DOCTYPE svg PUBLIC "-//W3C//DTD SVG 1.1//EN" "http://www.w3.org/Graphics/SVG/1.1/DTD/svg11.dtd">
<svg width="100%" height="100%" viewBox="0 0 1527 1097" version="1.1" xmlns="http://www.w3.org/2000/svg" xmlns:xlink="http://www.w3.org/1999/xlink" xml:space="preserve" xmlns:serif="http://www.serif.com/" style="fill-rule:evenodd;clip-rule:evenodd;stroke-linejoin:round;stroke-miterlimit:2;">
    <g transform="matrix(1,0,0,1,-260.656437,-633.444375)">
        <g transform="matrix(1,0,0,1,0,24)">
            <path d="M1024,610C1024,610 1105.457,603.184 1220.762,637.301C1315.619,665.368 1433.383,721.137 1547.551,831.194C1574.346,857.024 1600.944,885.845 1627,918L1614,1151C1614,1151 1706.91,1087.035 1779,1159C1825.891,1205.81 1659.84,1405 1659.84,1405C1659.84,1405 1614.061,1691.001 1501.178,1705.5C1470.475,1709.444 1439.508,1687.653 1428.494,1617.063C1417.252,1545.009 1429.993,1432.531 1498,1287C1523.956,1231.455 1540.319,1226.723 1548.215,1185.3C1549.346,1179.371 1550.302,1172.69 1551.089,1165C1551.474,1161.239 1551.863,1157.252 1552.256,1153.081C1564.14,1052.033 1565,982 1565,982C1565,982 1387.811,691.865 1024,694C660.189,691.865 483,982 483,982C483,982 483.86,1052.033 495.744,1153.081C496.137,1157.252 496.526,1161.239 496.911,1165C497.698,1172.69 498.654,1179.371 499.785,1185.3C507.681,1226.723 524.044,1231.455 550,1287C618.007,1432.531 630.748,1545.009 619.506,1617.063C608.492,1687.653 577.525,1709.444 546.822,1705.5C433.939,1691.001 388.16,1405 388.16,1405C388.16,1405 222.109,1205.81 269,1159C341.09,1087.035 434,1151 434,1151L421,918C447.056,885.845 473.654,857.024 500.449,831.194C614.617,721.137 732.381,665.368 827.238,637.301C942.543,603.184 1024,610 1024,610Z"/>
        </g>
    </g>
</svg>
