<?xml version="1.0" encoding="UTF-8" standalone="no"?>
<!-- Created with Inkscape (http://www.inkscape.org/) -->

<svg
   width="269.13898mm"
   height="50.309357mm"
   viewBox="0 0 269.13898 50.309357"
   version="1.1"
   id="svg1"
   sodipodi:docname="TextLogo.svg"
   inkscape:version="1.4.2 (ebf0e940, 2025-05-08)"
   xmlns:inkscape="http://www.inkscape.org/namespaces/inkscape"
   xmlns:sodipodi="http://sodipodi.sourceforge.net/DTD/sodipodi-0.dtd"
   xmlns="http://www.w3.org/2000/svg"
   xmlns:svg="http://www.w3.org/2000/svg">
  <sodipodi:namedview
     id="namedview1"
     pagecolor="#ffffff"
     bordercolor="#000000"
     borderopacity="0.25"
     inkscape:showpageshadow="2"
     inkscape:pageopacity="0.0"
     inkscape:pagecheckerboard="0"
     inkscape:deskcolor="#d1d1d1"
     inkscape:document-units="mm"
     inkscape:zoom="0.62887217"
     inkscape:cx="505.66715"
     inkscape:cy="151.06409"
     inkscape:window-width="1528"
     inkscape:window-height="909"
     inkscape:window-x="0"
     inkscape:window-y="40"
     inkscape:window-maximized="0"
     inkscape:current-layer="svg1" />
  <defs
     id="defs1" />
  <g
     id="layer1"
     transform="translate(-2.9304998,-5.3453202)">
    <path
       d="M 2.9304999,5.3453201 H 19.678647 V 38.906529 H 33.31086 V 54.616032 H 2.9304999 Z m 31.0944351,0 H 49.734437 V 34.62212 q 0,2.272035 1.557967,3.765087 1.622882,1.493052 3.830003,1.493052 2.272035,0 3.830002,-1.493052 1.622883,-1.493052 1.622883,-3.765087 V 5.3453201 H 76.219879 V 34.62212 q 0,4.41424 -1.687798,8.244243 -1.622883,3.830002 -4.479156,6.686275 -2.856273,2.791358 -6.751191,4.479156 -3.830002,1.622882 -8.179327,1.622882 -4.414241,0 -8.244243,-1.622882 -3.830003,-1.687798 -6.686276,-4.479156 -2.856273,-2.856273 -4.544071,-6.686275 -1.622882,-3.830003 -1.622882,-8.244243 z m 43.62314,0 h 22.915105 l 5.77746,25.1871359 5.84237,-25.1871359 h 22.26595 V 54.616032 h -14.73577 v -27.06968 l -6.68628,27.06968 H 99.005208 l -6.686276,-27.06968 v 27.06968 H 77.648075 Z m 58.164095,0 h 16.81306 V 54.616032 h -16.81306 z m 18.24121,0 h 30.38036 V 21.054822 h -13.63221 v 5.38797 h 13.63221 v 15.709502 h -13.63221 v 12.463738 h -16.74815 z m 31.48396,0 h 15.7095 V 34.62212 q 0,2.272035 1.55797,3.765087 1.62288,1.493052 3.83,1.493052 2.27204,0 3.83001,-1.493052 1.62288,-1.493052 1.62288,-3.765087 V 5.3453201 h 15.64459 V 34.62212 q 0,4.41424 -1.6878,8.244243 -1.62288,3.830002 -4.47916,6.686275 -2.85627,2.791358 -6.75119,4.479156 -3.83,1.622882 -8.17933,1.622882 -4.41424,0 -8.24424,-1.622882 -3.83,-1.687798 -6.68627,-4.479156 -2.85628,-2.856273 -4.54408,-6.686275 -1.62288,-3.830003 -1.62288,-8.244243 z m 43.62314,0 h 25.64154 q 3.57034,0 6.68628,1.3632213 3.11593,1.298306 5.38797,3.6352566 2.33695,2.272036 3.63526,5.38797 1.36322,3.115934 1.36322,6.686276 0,4.544071 -2.20712,8.309158 -2.14221,3.765087 -5.71255,6.037123 l 8.11441,17.851707 h -20.44832 l -5.71254,-15.904248 v 15.904248 h -16.74815 z m 22.65544,22.5905239 q 1.62288,0 2.79136,-1.168475 1.23339,-1.168476 1.23339,-2.856274 0,-1.622882 -1.23339,-2.791357 -1.16848,-1.168476 -2.79136,-1.168476 h -5.90729 v 7.984582 z"
       id="text1"
       style="font-size:64.9153px;font-family:Meloriac;-inkscape-font-specification:Meloriac;text-align:center;letter-spacing:0px;word-spacing:0px;text-anchor:middle;fill-rule:evenodd;stroke-width:3.21657"
       aria-label="Lumifur" />
  </g>
</svg>
